<?xml version="1.0" encoding="UTF-8"?>
<svg width="1388px" height="453px" viewBox="0 0 1388 453" version="1.1" xmlns="http://www.w3.org/2000/svg" xmlns:xlink="http://www.w3.org/1999/xlink">
    <!-- Generator: Sketch 42 (36781) - http://www.bohemiancoding.com/sketch -->
    <title>myfoodlink-logo-green-grey</title>
    <desc>Created with Sketch.</desc>
    <defs></defs>
    <g id="Page-1" stroke="none" stroke-width="1" fill="none" fill-rule="evenodd">
        <g id="words" transform="translate(11.000000, 138.000000)">
            <g id="logo-words" transform="translate(394.500000, 134.455794) scale(1, -1) translate(-394.500000, -134.455794) translate(0.000000, 0.955794)">
                <path d="M65.8130582,150.569088 C65.8130582,147.308434 69.4232777,146.4501 73.5485143,145.414005 L73.5485143,142.844081 C68.7399876,142.844081 64.2731059,143.524654 59.8062242,143.524654 C55.3342433,143.524654 50.8673616,142.844081 47.7721593,142.844081 L47.7721593,145.414005 C49.8373272,146.277418 53.7840925,147.481117 53.7840925,150.569088 L53.7840925,178.249091 C53.7840925,201.281901 48.1189035,206.609667 35.7482928,206.609667 C31.2712127,206.609667 25.6060237,203.343935 20.9657699,200.250885 C21.1340428,193.206451 20.7974969,182.891206 20.7974969,172.235674 L20.7974969,150.569088 C20.7974969,147.308434 24.4026172,146.4501 28.1862088,145.414005 L28.1862088,142.844081 C23.7142279,142.844081 19.2473462,143.524654 14.7855637,143.524654 C10.3135828,143.524654 5.84670111,142.844081 2.75149883,142.844081 L2.75149883,145.414005 C4.81156756,146.277418 8.76853126,147.481117 8.76853126,150.569088 L8.76853126,173.261612 C8.76853126,182.718523 8.25351408,197.838407 7.56512478,201.627267 C6.88183465,203.856904 5.50505604,204.547634 0.176412916,204.547634 L0.176412916,207.127715 C6.02007323,207.813367 13.4036859,211.597147 17.8705676,215.203166 L20.9657699,215.203166 L21.3125141,205.751333 C29.7312604,210.048082 34.7131592,215.203166 45.8803635,215.203166 C53.9625638,215.203166 61.8611937,211.424464 65.298041,203.684221 C73.3751422,209.702717 81.9672606,215.203166 92.1095296,215.203166 C101.726583,215.203166 110.833719,206.609667 110.833719,196.81247 L110.833719,150.569088 C110.833719,147.308434 114.438839,146.4501 118.222431,145.414005 L118.222431,142.844081 C113.755549,142.844081 109.288667,143.524654 104.821785,143.524654 C100.354904,143.524654 95.8829228,142.844081 91.7627854,142.844081 L91.7627854,145.414005 C94.8528885,146.277418 98.804753,147.481117 98.804753,150.569088 L98.804753,187.528241 C98.804753,200.591171 90.3860068,206.609667 83.5123121,206.609667 C76.8119895,206.609667 72.1717357,202.99857 65.8130582,199.565233 L65.8130582,150.569088 L65.8130582,150.569088 Z" id="Shape" fill="#1A1A1A"></path>
                <path d="M138.150026,196.639787 C132.994755,207.640684 131.444604,210.388369 125.606043,210.906416 L125.606043,213.486497 C130.587942,213.486497 135.569841,212.800846 140.556839,212.800846 C145.538738,212.800846 150.520637,213.486497 155.502536,213.486497 L155.502536,210.906416 C151.040753,210.733734 149.31723,209.530035 149.31723,206.955032 C149.31723,205.238364 149.663975,202.820808 151.040753,199.732837 L170.111686,157.445918 L187.117452,197.498121 C188.667603,200.936536 189.014347,204.715238 189.014347,205.924016 C189.014347,209.530035 185.740673,210.906416 182.823942,210.906416 L182.823942,213.486497 C187.295923,213.486497 191.757706,212.800846 196.224587,212.800846 C200.691469,212.800846 205.158351,213.486497 209.625233,213.486497 L209.625233,210.906416 C200.691469,209.530035 197.94811,201.967553 194.169618,194.059706 L166.159822,136.820506 C159.969417,124.102942 150.694009,112.578918 132.306366,112.578918 L131.102959,121.700622 C133.168127,121.009892 135.401568,120.83213 137.635009,120.83213 C148.628841,120.83213 160.316162,134.585791 163.06462,144.555671 L138.150026,196.639787 L138.150026,196.639787 Z" id="Shape" fill="#1A1A1A"></path>
                <path d="M262.029506,212.800846 L262.029506,207.295319 L240.556859,207.295319 L240.556859,151.087136 C240.556859,147.481117 244.161979,146.622783 247.94557,145.414005 L247.94557,142.839003 C243.47359,142.839003 239.006708,143.524654 234.539826,143.524654 C230.072944,143.524654 225.600964,142.839003 221.134082,142.839003 L221.134082,145.414005 C224.576028,146.4501 228.522794,147.826482 228.522794,151.087136 L228.522794,191.652308 C228.522794,196.980073 227.671231,201.967553 227.319387,207.295319 L220.27232,207.295319 L220.27232,209.017066 C227.319387,211.079099 229.7262,228.438778 230.756235,234.289671 C233.33132,248.891507 236.25825,266.428948 254.814166,266.428948 C257.909368,266.428948 259.974536,265.9109 261.861233,265.392852 L261.861233,253.873908 L259.281048,253.873908 C257.909368,259.03407 255.329183,261.614151 250.347284,261.614151 C242.958572,261.614151 240.556859,249.582238 240.556859,232.044797 L240.556859,212.800846 L262.029506,212.800846 L262.029506,212.800846 Z" id="Shape" fill="#B0C758"></path>
                <path d="M306.876794,145.937131 C324.744321,145.937131 330.414609,163.637097 330.414609,178.244012 C330.414609,192.693482 324.744321,210.393448 306.876794,210.393448 C289.004168,210.393448 283.33388,192.693482 283.33388,178.244012 C283.33388,163.637097 289.004168,145.937131 306.876794,145.937131 L306.876794,145.937131 Z M306.876794,215.203166 C328.349441,215.203166 344.161998,200.936536 344.161998,178.244012 C344.161998,155.388964 328.349441,141.122334 306.876794,141.122334 C285.393949,141.122334 269.58649,155.388964 269.58649,178.244012 C269.58649,200.936536 285.393949,215.203166 306.876794,215.203166 L306.876794,215.203166 L306.876794,215.203166 Z" id="Shape" fill="#B0C758"></path>
                <path d="M396.051254,145.937131 C413.918781,145.937131 419.589069,163.637097 419.589069,178.244012 C419.589069,192.693482 413.918781,210.393448 396.051254,210.393448 C378.178628,210.393448 372.50834,192.693482 372.50834,178.244012 C372.50834,163.637097 378.178628,145.937131 396.051254,145.937131 L396.051254,145.937131 Z M396.051254,215.203166 C417.523901,215.203166 433.336459,200.936536 433.336459,178.244012 C433.336459,155.388964 417.523901,141.122334 396.051254,141.122334 C374.568409,141.122334 358.760951,155.388964 358.760951,178.244012 C358.760951,200.936536 374.568409,215.203166 396.051254,215.203166 L396.051254,215.203166 L396.051254,215.203166 Z" id="Shape" fill="#B0C758"></path>
                <path d="M503.608259,193.033768 C503.608259,203.684221 493.644461,209.189748 483.333919,209.189748 C468.89814,209.189748 462.717934,194.059706 462.717934,181.001855 C462.717934,164.845875 471.310052,149.720912 487.459155,149.720912 C492.441054,149.720912 499.319848,151.950549 503.608259,156.587584 L503.608259,193.033768 L503.608259,193.033768 Z M515.637224,161.062095 C515.637224,152.463518 517.702392,150.056119 520.445751,150.056119 C524.570988,150.056119 527.66619,152.123231 529.899631,153.667217 L530.414648,150.233881 C526.9829,149.197785 518.044037,144.901036 511.170343,141.122334 C507.39185,142.320955 505.326682,145.591766 505.326682,149.548229 L505.326682,152.123231 C498.111343,145.414005 489.177579,141.122334 479.040409,141.122334 C460.311121,141.122334 448.970545,158.309331 448.970545,177.218075 C448.970545,198.534217 461.851073,215.203166 483.848936,215.203166 C491.069375,215.203166 497.764598,213.65918 503.608259,209.017066 L503.608259,219.159628 C503.608259,229.297112 503.271713,239.439675 503.271713,247.692887 C503.271713,250.95862 501.894934,252.84797 494.159478,252.15724 L494.159478,254.051669 C501.894934,257.667846 509.798663,261.959516 513.918801,266.428948 L516.504085,266.428948 C515.978869,252.15724 515.637224,237.895689 515.637224,223.62906 L515.637224,161.062095 L515.637224,161.062095 Z" id="Shape" fill="#B0C758"></path>
                <path d="M558.251072,150.569088 C558.251072,147.308434 561.856192,146.4501 565.639784,145.414005 L565.639784,142.844081 C561.172902,142.844081 556.70602,143.524654 552.239139,143.524654 C547.767158,143.524654 543.300276,142.844081 539.180138,142.844081 L539.180138,145.414005 C542.270242,146.277418 546.222106,147.481117 546.222106,150.569088 L546.222106,207.127715 C546.222106,228.093413 545.533717,247.520204 545.533717,249.414634 C545.533717,254.051669 538.828295,253.193335 536.079837,252.84797 L536.079837,255.946099 C544.33031,259.03407 550.515616,261.781755 557.047665,266.428948 L559.107734,266.428948 C559.107734,253.020653 558.251072,239.439675 558.251072,226.03138 L558.251072,150.569088 L558.251072,150.569088 Z" id="Shape" fill="#1A1A1A"></path>
                <path d="M595.704549,244.594758 C599.309669,244.594758 602.91479,241.329026 602.91479,238.068372 C602.91479,234.624878 599.309669,231.359146 595.704549,231.359146 C592.09433,231.359146 588.48411,234.624878 588.48411,238.068372 C588.48411,241.329026 592.09433,244.594758 595.704549,244.594758 L595.704549,244.594758 Z M603.603179,215.203166 C603.434906,196.985152 602.746517,178.421774 602.746517,167.933846 L602.746517,150.569088 C602.746517,147.308434 606.351637,146.4501 609.793584,145.414005 L609.793584,142.844081 C605.668347,142.844081 601.196366,143.524654 596.729484,143.524654 C593.124364,143.524654 588.657482,142.844081 585.052362,142.844081 L585.052362,145.414005 C586.770786,146.277418 590.717551,147.481117 590.717551,150.569088 L590.717551,173.261612 C590.717551,182.718523 590.207633,197.838407 589.519244,199.90552 C588.830854,202.140236 587.459175,202.820808 582.130532,202.820808 L582.130532,205.400889 C587.969093,206.09162 598.279635,211.079099 601.028093,215.203166 L603.603179,215.203166 L603.603179,215.203166 Z" id="Shape" fill="#1A1A1A"></path>
                <path d="M647.762078,204.38003 C655.497534,209.362431 663.059618,215.203166 673.890276,215.203166 C686.939078,215.203166 695.184452,205.751333 695.184452,193.71942 L695.184452,150.569088 C695.184452,147.994086 697.081347,146.790387 700.17145,145.414005 L700.17145,142.844081 C696.214487,142.844081 692.27282,143.524654 688.315857,143.524654 C684.363992,143.524654 680.412128,142.844081 676.286891,142.844081 L676.286891,145.414005 C678.867076,146.277418 683.160586,147.481117 683.160586,150.569088 L683.160586,167.420877 C683.160586,176.700027 682.645569,190.453687 681.962278,193.892102 C680.065383,203.003648 673.191689,206.614746 665.119687,206.614746 C658.251091,206.614746 651.892414,202.312918 647.762078,199.042107 C647.762078,191.312021 647.420433,178.249091 647.420433,166.384782 L647.420433,150.569088 C647.420433,147.826482 649.485601,146.963069 652.575704,145.414005 L652.575704,142.844081 C648.623839,142.844081 644.677074,143.524654 640.72521,143.524654 C636.768246,143.524654 632.811282,142.844081 628.859418,142.844081 L628.859418,145.414005 C631.439603,146.277418 635.391467,147.481117 635.391467,150.569088 L635.391467,173.261612 C635.391467,182.718523 634.881549,197.843486 634.188061,199.90552 C633.504771,202.140236 632.127992,202.820808 626.804448,202.820808 L626.804448,205.400889 C634.014689,207.813367 640.205093,210.561051 645.018719,215.203166 L647.593805,215.203166 L647.762078,204.38003 L647.762078,204.38003 Z" id="Shape" fill="#1A1A1A"></path>
                <path d="M733.499691,150.569088 C733.499691,147.308434 737.11501,146.4501 740.888403,145.414005 L740.888403,142.844081 C736.42662,142.844081 731.954639,143.524654 727.487758,143.524654 C723.025975,143.524654 718.548895,142.844081 714.087113,142.844081 L714.087113,145.414005 C717.52396,146.277418 721.475824,147.481117 721.475824,150.569088 L721.475824,207.127715 C721.475824,228.093413 720.787435,247.520204 720.787435,249.414634 C720.787435,254.051669 714.087113,253.193335 711.338655,252.84797 L711.338655,255.946099 C719.578929,259.03407 725.769334,261.781755 732.296284,266.428948 L734.361452,266.428948 C734.361452,253.020653 733.499691,239.439675 733.499691,226.03138 L733.499691,183.058809 C738.139945,187.700924 757.557622,202.663362 757.557622,206.78235 C757.557622,209.017066 754.635792,210.220765 752.922468,210.906416 L752.922468,213.486497 C757.38425,213.486497 761.851132,212.800846 766.328212,212.800846 C770.789995,212.800846 775.251777,213.486497 779.723758,213.486497 L779.723758,210.393448 C767.526519,208.499018 753.605758,193.71942 745.360384,186.151859 L770.958267,159.000061 C776.628556,152.976486 780.070502,148.857499 788.484149,146.4501 L788.484149,142.844081 C784.017267,142.844081 779.555485,143.524654 775.083504,143.524654 C770.616622,143.524654 766.149741,142.844081 761.682859,142.844081 L761.682859,145.414005 C763.059638,145.764449 764.431317,146.790387 764.431317,147.653799 C764.431317,148.339451 764.257945,149.197785 763.401283,150.228802 L735.906504,179.452791 L733.499691,177.731044 L733.499691,150.569088 L733.499691,150.569088 Z" id="Shape" fill="#1A1A1A"></path>
                <path d="M197.489184,65.3807032 C197.489184,69.3727183 196.724307,70.1396322 196.076711,70.2666047 C195.434215,70.3986561 194.786619,70.906546 194.149221,70.906546 C193.506724,70.906546 193.119187,70.2666047 192.991707,69.8856872 C191.834193,68.7276981 189.651744,62.3028899 189.651744,56.7668893 C189.651744,55.4870065 190.039282,54.0699935 190.804159,54.0699935 C193.119187,54.0699935 197.489184,61.2667944 197.489184,65.3807032 L197.489184,65.3807032 Z M237.323978,48.4120992 C236.436721,51.6270427 235.401588,66.0206445 235.401588,69.8856872 C235.401588,71.0436763 234.631611,71.5566452 234.244074,71.5566452 C233.989115,71.5566452 233.468998,71.4245938 233.08656,71.0436763 C231.801566,70.1396322 232.056525,70.0075808 230.261614,66.8027951 C228.589083,63.8367176 226.279154,59.8548603 224.474045,57.0259131 C223.316531,55.613979 222.939192,54.0699935 222.036637,52.9170833 C219.854188,50.4792114 214.836595,46.3551449 212.139128,46.3551449 C210.726655,46.3551449 210.471696,49.184092 210.471696,52.526008 C210.471696,54.7099349 213.679081,63.8367176 213.679081,75.5435815 C213.679081,76.8183853 212.781625,77.4684845 212.781625,79.0073911 C212.781625,81.5823932 211.889268,83.8983715 209.569142,83.8983715 C204.561747,83.8983715 198.774177,78.7534461 198.774177,77.8494019 C198.774177,77.3364331 198.901657,76.8183853 199.416674,76.5695192 C201.726603,75.5435815 203.659192,72.328638 203.659192,68.3366228 C203.659192,60.372908 194.021742,46.4922751 190.166762,46.4922751 C186.69422,46.4922751 184.124233,49.9560847 184.124233,53.4300521 C184.124233,70.0075808 195.939033,89.8102107 210.211638,89.8102107 C216.509126,89.8102107 219.981667,87.2352086 219.981667,83.2533512 C219.981667,80.8104005 218.696674,63.4558002 218.696674,61.5207394 C218.696674,58.5698986 218.564095,58.1839023 219.726708,58.1839023 C220.364106,58.1839023 220.879123,59.3368125 221.266661,59.7278878 C222.036637,60.626853 223.189051,61.0077705 223.964127,62.4298624 C224.734103,63.7097451 224.861582,64.9947068 225.759038,66.5386923 C227.691627,69.4996908 228.844042,72.5825829 231.15907,75.2794787 C234.116594,78.4944222 236.81406,80.8104005 240.281503,80.8104005 C241.699075,80.8104005 242.596531,78.1084258 242.72401,74.6395373 C242.72401,70.5205497 243.371606,55.4870065 243.499085,53.8160485 C243.754044,49.5700884 244.269062,48.8031745 245.681534,48.8031745 C246.711569,48.8031745 248.894018,50.0830572 249.536515,50.4792114 C250.688929,51.1140739 251.081566,52.9170833 251.724063,52.9170833 C252.876478,52.9170833 253.131437,52.7850319 253.518974,52.272063 C253.773933,52.018118 254.161471,51.3680189 254.161471,50.601105 C254.161471,49.9560847 253.391495,49.8291123 252.876478,48.9250681 C251.081566,46.4922751 246.966528,41.4794011 244.014103,41.4794011 C240.026544,41.4794011 238.74155,43.917273 237.323978,48.4120992 L237.323978,48.4120992 L237.323978,48.4120992 Z" id="Shape" fill="#1A1A1A"></path>
                <path d="M286.928802,103.949868 C286.928802,106.52487 288.213795,107.682859 291.431378,107.682859 C292.068775,107.682859 293.226289,106.641684 293.868786,106.011901 C294.511282,105.234829 295.14868,105.107857 295.14868,103.949868 C295.14868,102.791878 294.383803,102.030043 293.613827,100.993948 C292.843851,100.348928 291.681238,99.4499624 290.788881,99.4499624 C288.728812,99.4499624 286.928802,101.252972 286.928802,103.949868 L286.928802,103.949868 Z M256.603978,45.7152035 C255.313886,46.7462201 255.064026,48.930147 255.064026,51.5051492 C255.064026,52.2771419 255.573944,54.2020449 255.573944,56.1320268 C255.573944,68.3417017 258.27141,91.9941376 258.403989,93.6650956 C259.046485,100.872054 259.938842,105.366881 259.938842,106.900708 C259.938842,107.931725 260.973975,108.576745 262.12639,109.47571 C263.161524,110.252782 263.926401,111.532665 264.823856,111.532665 C266.751346,111.532665 268.041439,110.765751 268.041439,108.449773 C268.041439,107.03276 267.78648,104.462836 266.368908,102.27891 C265.853891,101.252972 265.853891,99.9680102 265.593833,98.6830485 C264.696377,93.543202 260.973975,62.8209377 260.973975,56.7719682 C260.973975,55.1010101 261.356414,54.4610688 262.386448,56.2589993 C263.543962,57.538882 270.998963,67.8287328 279.733859,79.9114352 C281.793927,82.354386 285.001312,88.0072013 287.056281,88.0072013 C288.983771,88.0072013 292.456313,86.7222397 292.456313,84.4113404 C292.456313,82.9943273 291.16622,81.3182904 290.788881,79.5305177 C288.983771,70.5256286 288.601333,63.5878516 288.213795,57.9299573 C288.213795,57.1579645 287.571298,56.2589993 287.448918,55.2279826 C287.316339,53.5570246 287.571298,52.0231969 287.571298,50.8601289 C287.571298,50.601105 288.468754,49.1891709 288.468754,48.676202 C288.468754,47.005244 287.056281,45.8472549 285.13389,45.8472549 C282.558804,45.8472549 280.376355,47.6451854 280.376355,49.5751673 C280.376355,53.8211274 285.001312,75.9295778 285.001312,77.4735634 C285.001312,78.3674497 284.868733,78.8804186 283.721418,77.9814533 C277.418831,74.3855923 271.64146,65.5127545 266.10885,54.9740377 C265.216493,53.2980008 265.853891,51.6270427 264.951336,49.7021398 C264.058979,47.5182129 262.768887,44.8213171 261.096356,44.8213171 C259.428924,44.8213171 257.506533,44.9482896 256.603978,45.7152035 L256.603978,45.7152035 L256.603978,45.7152035 Z" id="Shape" fill="#1A1A1A"></path>
                <path d="M360.178523,71.1706488 C364.676,73.8726235 371.743463,79.1394425 371.743463,81.7144446 C371.743463,82.608331 371.100966,83.1263787 370.58085,83.1263787 C368.78084,83.1263787 363.528684,78.6315525 359.281067,72.4556104 C358.628372,71.4245938 358.893529,70.5256286 360.178523,71.1706488 L360.178523,71.1706488 Z M369.173476,50.7280775 C369.943453,51.8911455 372.131001,52.9170833 372.900977,53.8211274 C373.670953,54.7150138 374.053392,55.1010101 374.955947,55.1010101 C375.853402,55.1010101 376.24094,54.5829624 376.24094,53.6941549 C376.24094,52.7850319 375.470964,51.7590941 374.568409,51.3730978 C373.670953,50.9921803 373.028456,48.8031745 371.743463,47.7721579 C370.453371,46.7462201 363.900924,40.8343809 355.941104,40.8343809 C352.335984,40.8343809 345.788637,41.7333461 345.788637,50.0881361 C345.788637,53.6941549 346.813572,54.9740377 346.813572,56.2589993 C346.813572,57.9299573 346.171075,57.8029848 345.401099,57.4119095 C339.231091,54.3340963 332.418587,48.4120992 330.108658,48.4120992 C327.151134,48.4120992 325.611181,50.2151086 325.488801,52.5310869 C325.223644,57.1579645 326.763596,71.2976213 326.641216,75.8026054 C326.641216,76.4425467 326.508637,76.9504367 325.998719,76.9504367 C325.611181,76.9504367 323.556212,76.4425467 323.168674,76.0565503 C322.143739,75.0306126 319.186215,73.8726235 315.713673,68.8495917 C309.033747,59.3368125 305.183866,45.588231 299.778735,45.588231 C297.978725,45.588231 296.566252,47.6451854 296.566252,50.3420811 C296.566252,53.2980008 297.468807,54.0750724 297.851245,56.9040195 C297.978725,58.9609739 300.038794,80.2974316 300.038794,82.354386 C300.038794,83.6342687 300.553811,84.5433917 301.451266,85.442357 C302.60878,86.2092708 303.378757,87.113315 304.66375,87.113315 C306.081322,87.113315 306.458661,86.5952672 307.233737,86.3362433 C308.778788,85.696302 309.931203,85.1782542 309.931203,84.4113404 C309.931203,81.7144446 309.421285,82.4813585 308.778788,80.5564555 C308.51873,80.4244041 307.106257,78.8804186 307.106257,76.5695192 C307.106257,73.7405721 303.893774,61.3988458 303.893774,58.0569298 C303.893774,57.030992 304.276212,56.7719682 305.051288,57.538882 C306.203702,58.9609739 310.833758,70.7897313 312.113652,72.5876618 C315.076275,76.8183853 314.561258,74.1316473 317.518783,78.1135047 C318.926156,80.1704591 318.028701,81.4554207 319.058735,82.2274135 C322.521078,86.4632158 327.538671,88.3982766 329.721121,88.3982766 C331.393652,88.3982766 333.321142,86.8542911 333.321142,85.0563606 C333.321142,84.1523165 334.091118,82.8673548 334.091118,81.3182904 C334.091118,76.1835228 332.811224,67.9607842 332.933604,58.3159537 C332.933604,57.030992 333.576101,55.8730029 334.733614,55.8730029 C336.273567,55.8730029 343.080972,60.1138842 345.911017,62.6838074 C348.226045,64.7356829 349.765997,66.6707437 350.148436,67.6966814 C356.83856,80.1704591 364.930959,89.8152896 372.773497,89.8152896 C376.24094,89.8152896 378.295909,88.0072013 378.295909,85.1782542 C378.295909,80.5564555 377.393355,76.9504367 358.893529,64.4868168 C357.226098,63.3288277 355.420988,61.6578697 354.135994,59.2199978 C352.596042,56.6449957 351.953545,54.7150138 351.953545,50.8601289 C351.953545,45.8472549 354.778491,46.1011999 357.226098,46.1011999 C361.845955,46.1011999 368.4035,49.5751673 369.173476,50.7280775 L369.173476,50.7280775 L369.173476,50.7280775 Z" id="Shape" fill="#1A1A1A"></path>
                <path d="M451.025514,70.6576799 C451.025514,71.5566452 450.903134,74.2586198 450.260637,74.1316473 C449.103123,73.999596 448.200568,75.1575851 447.81813,75.6654751 C446.278178,77.6005358 447.170534,77.7275083 445.895739,77.7275083 C441.648122,77.7275083 436.895686,62.4298624 436.895686,55.9999754 C436.895686,53.6941549 437.665663,52.6580594 438.690598,52.6580594 C444.605647,52.6580594 451.025514,65.2588096 451.025514,70.6576799 L451.025514,70.6576799 Z M457.975697,76.1835228 C457.45558,75.6654751 456.940563,72.074693 456.940563,71.1706488 C456.940563,62.5568349 447.170534,45.7152035 437.665663,45.7152035 C434.19822,45.7152035 431.883192,49.4431159 431.883192,54.5829624 C431.883192,64.1008204 436.380669,73.1006307 439.720632,79.7844627 C439.98069,80.1704591 440.750666,81.3233693 439.078135,81.3233693 C437.920622,81.3233693 431.240696,78.6315525 423.658215,77.2145395 C422.760759,77.0824881 422.373222,76.3155742 422.118263,75.4115301 C419.680855,64.3547654 417.748265,47.005244 417.748265,38.3914301 C417.748265,34.4095727 416.595851,25.536735 416.595851,20.6508334 C416.595851,3.94633231 406.565764,3.16926065 406.305705,1.75732653 C406.183325,0.985333777 405.540828,0.5942585 405.025811,0.5942585 C404.128355,0.5942585 403.868297,1.11230627 403.868297,1.87922013 C403.868297,2.2702954 406.183325,5.22621503 406.443383,6.89209414 C406.565764,7.92818968 406.305705,8.30402825 406.443383,10.1121165 C406.443383,11.7881535 411.450778,14.7389942 411.450778,21.6818501 C411.450778,36.7204721 414.020765,63.4608791 416.208313,73.2276032 C416.463272,74.1316473 416.075734,74.3855923 415.178279,74.2586198 C413.505748,73.999596 409.655867,73.1006307 408.880791,72.4556104 C407.728377,71.5566452 405.148191,68.3417017 403.740818,68.3417017 C402.200865,68.3417017 400.650715,69.1136944 400.268276,69.8907661 C400.013317,70.9116249 399.243341,71.5566452 399.243341,72.5876618 C399.243341,73.6186785 399.885838,75.2845576 400.783293,76.3155742 C401.940807,77.6005358 403.098321,76.9555156 405.025811,77.7275083 C407.33574,78.7534461 414.148244,80.0384077 416.84571,80.6783491 C417.615687,80.8104005 417.880844,81.3233693 418.008324,82.0953621 C423.015718,103.949868 430.083182,123.493474 447.170534,123.493474 C451.025514,123.493474 451.545631,121.177495 451.545631,119.760482 C451.545631,118.734545 450.133158,116.936614 446.405657,116.291594 C443.575612,115.778625 444.605647,113.848643 441.260584,112.827784 C433.683203,110.374676 426.743219,93.9291984 424.173232,83.5123751 C424.045753,82.9943273 424.045753,82.608331 424.815729,82.7454612 C438.0532,84.4113404 442.938215,89.292163 447.81813,89.292163 C450.643076,89.292163 451.158093,87.621205 451.285572,86.9812636 C451.80059,83.9034504 452.320706,82.354386 452.958103,82.354386 C455.522991,81.8414171 455.910529,80.937373 457.45558,81.0694243 C460.153046,81.3233693 467.475469,88.1341738 470.693052,88.1341738 C474.033014,88.1341738 475.190528,86.8542911 475.190528,81.9734685 C475.190528,73.999596 470.305514,59.8548603 470.305514,53.0440558 C470.305514,52.0231969 471.080589,51.5051492 471.463028,53.1811861 C473.778055,61.1499797 483.797944,93.1521267 494.077891,93.1521267 C496.907936,93.1521267 501.915331,91.9941376 501.915331,88.6573005 C501.915331,87.113315 501.405413,86.8542911 499.732882,86.8542911 C498.702847,86.8542911 494.980446,83.7764779 494.205371,83.7764779 C490.350391,83.7764779 480.457981,70.9116249 474.675511,48.5492295 C473.900436,45.588231 471.080589,40.7023295 468.89814,40.7023295 C465.553078,40.7023295 463.753068,42.8913353 463.753068,45.4612585 C463.753068,46.8731926 464.650523,48.8082534 464.650523,51.2461253 C464.650523,52.7850319 468.505503,77.8544808 468.505503,80.1704591 C468.505503,81.0694243 468.250544,81.2014757 466.960452,80.937373 C464.783102,80.5564555 460.153046,76.7015706 457.975697,76.1835228 L457.975697,76.1835228 L457.975697,76.1835228 Z" id="Shape" fill="#1A1A1A"></path>
                <path d="M567.332711,75.1525062 C567.332711,77.3364331 566.175198,77.4684845 565.012585,77.4684845 C563.73269,77.4684845 563.090194,78.4893433 562.575176,78.4893433 C561.937779,78.4893433 561.545142,77.5954569 561.030125,77.4684845 C558.0777,76.8183853 551.907692,54.7099349 551.907692,51.5000703 C551.907692,49.184092 552.422709,49.3161434 553.452743,49.3161434 C556.925285,49.3161434 567.332711,69.7536358 567.332711,75.1525062 L567.332711,75.1525062 Z M526.722842,3.29115424 C526.722842,3.68222952 527.492818,5.09416364 527.757975,6.76512164 C527.880356,7.79613828 527.620297,8.17705576 527.757975,9.98006516 C527.757975,11.6510232 528.135315,15.1199117 528.135315,17.8168074 C528.135315,32.8605083 530.7104,60.7589044 532.89285,73.8726235 C533.020329,74.7715887 532.760271,75.0255337 531.862815,74.8985612 C528.522852,74.2586198 525.952866,72.9685793 525.17779,72.328638 C524.020276,71.4245938 523.770416,69.4996908 522.352844,69.4996908 C520.812892,69.4996908 519.26784,70.2666047 518.885402,71.0436763 C518.630443,72.0696141 517.855368,72.7146343 517.855368,73.7354932 C517.855368,74.7715887 518.497864,76.4425467 519.400419,77.4684845 C520.557933,78.7534461 521.715447,78.1084258 523.637838,78.8804186 C525.952866,79.9114352 530.067904,80.2974316 533.535346,81.3182904 C534.305322,81.5823932 534.565381,81.9683896 534.69286,82.7403823 C538.160302,97.7790044 548.822688,118.089524 554.605158,118.089524 C555.512812,118.089524 556.277689,116.931535 557.180244,116.931535 C558.337758,116.931535 559.622751,115.778625 559.622751,114.874581 C559.622751,113.848643 558.847676,113.716592 558.0777,113.203623 C557.435203,112.944599 556.665227,112.177685 555.767771,112.177685 C554.732638,112.177685 553.840281,110.115652 552.810247,109.221765 C547.537695,104.589809 543.815293,95.8541014 540.862868,84.1523165 C540.730289,83.6342687 540.730289,83.2482723 541.500265,83.3854026 C554.732638,85.0563606 556.925285,88.3982766 561.8052,88.3982766 C564.635245,88.3982766 566.175198,87.2352086 566.435256,86.5901883 C566.690215,85.8232745 567.460191,84.4062615 568.102688,84.4062615 C571.69761,84.4062615 573.242661,80.4244041 573.242661,75.6654751 C573.242661,67.0567401 557.695261,42.3732875 552.422709,42.3732875 C548.955267,42.3732875 546.900297,44.9432107 546.900297,50.0830572 C546.900297,52.1450905 552.172849,72.1965866 555.512812,78.8804186 C555.767771,79.2714938 556.155309,81.1963968 554.482778,81.1963968 C553.325264,81.1963968 547.925232,79.2714938 540.347851,77.8494019 C539.445296,77.7224294 539.057758,76.9504367 538.802799,76.0514714 C536.360292,64.9947068 534.437901,58.0569298 534.437901,34.5314663 C534.437901,30.5445301 533.142709,29.2595684 533.142709,24.3787458 C533.142709,7.66408689 529.420308,4.58119477 529.165349,3.16418175 C529.03277,2.392189 528.400472,2.01127152 527.880356,2.01127152 C526.977801,2.01127152 526.722842,2.52424039 526.722842,3.29115424 L526.722842,3.29115424 L526.722842,3.29115424 Z" id="Shape" fill="#1A1A1A"></path>
                <path d="M627.212382,74.7715887 C628.497376,76.8183853 630.684924,77.7224294 630.684924,78.6315525 C630.684924,79.1394425 630.424866,79.5254388 629.787468,79.5254388 C628.879814,79.5254388 628.114937,79.9114352 627.854879,80.5513766 C627.59992,81.3182904 627.212382,81.7093657 626.697365,81.7093657 C618.477487,81.7093657 604.082502,59.0828675 604.082502,50.8601289 C604.082502,49.8291123 604.724999,49.4431159 605.882512,49.4431159 C608.452499,49.4431159 614.744887,55.2279826 627.212382,74.7715887 L627.212382,74.7715887 Z M591.365147,75.4064512 C591.487527,75.9244989 592.002544,78.1084258 592.002544,79.7844627 C592.002544,81.4554207 590.72265,82.7403823 589.050119,82.7403823 C587.505068,82.7403823 586.735091,81.4554207 586.735091,79.7844627 C586.735091,77.7224294 588.275044,75.4064512 589.687517,74.7715887 C590.462592,74.3855923 591.232568,74.8985612 591.365147,75.4064512 L591.365147,75.4064512 Z M588.790061,67.1786336 C588.91754,68.2096503 588.790061,69.2406669 587.760027,69.7536358 C585.19004,71.4245938 583.777567,73.2276032 583.14017,74.8985612 C582.880111,75.5435815 582.110135,75.6654751 581.855176,74.8985612 C579.795107,70.1396322 577.740138,61.2667944 577.740138,51.5000703 C577.740138,50.0830572 578.127676,48.5441506 579.020032,48.5441506 C581.595118,48.5441506 587.250109,59.0828675 588.790061,67.1786336 L588.790061,67.1786336 Z M635.30988,45.8472549 C635.30988,46.3551449 634.539904,48.0311818 634.539904,48.676202 C634.284945,51.3680189 632.862274,64.6137893 632.862274,69.7536358 C632.862274,72.1965866 632.739894,72.9685793 632.229976,72.9685793 C631.4549,72.9685793 630.812404,72.0696141 630.292287,71.0436763 C619.369844,50.4792114 607.682523,42.6272325 603.052468,42.6272325 C599.070008,42.6272325 597.912494,44.5622933 597.912494,47.5182129 C597.912494,50.8601289 598.300032,55.7409515 604.979958,65.5127545 C605.749934,66.6707437 604.979958,67.1786336 604.215081,66.9246887 C599.202587,64.8728132 597.402576,64.9947068 594.960069,65.7717784 C593.930034,66.2847473 593.669976,66.2847473 593.292637,65.2537307 C587.892605,47.5182129 582.237615,43.0132288 577.612658,43.0132288 C575.170151,43.0132288 572.340106,46.2281724 572.340106,50.2151086 C572.340106,68.7276981 579.922587,91.3541963 588.91754,91.3541963 C590.080154,91.3541963 590.72265,89.9371832 591.09999,89.1601116 C591.232568,88.6522216 591.620106,88.2713041 592.257503,88.0072013 C594.82749,87.1082361 597.275097,84.9192303 597.275097,81.3182904 C597.275097,77.3364331 595.985004,73.7405721 595.985004,72.4556104 C595.985004,72.0696141 596.500021,70.906546 597.275097,70.2666047 C598.300032,69.4996908 599.070008,69.2406669 600.48758,69.2406669 C602.924988,69.2406669 607.294985,71.5566452 610.247411,74.7715887 C619.507521,84.7922578 624.004998,89.038218 628.247516,89.038218 C630.944982,89.038218 632.484935,87.1082361 632.484935,85.0563606 C632.484935,84.5383128 632.739894,83.8983715 633.254911,83.8983715 C633.769928,83.8983715 634.284945,85.3103056 634.539904,85.8232745 C635.824898,89.038218 636.982411,96.7479877 637.24247,98.8049421 C637.36485,100.094983 638.522364,100.348928 638.522364,100.866975 C638.522364,102.918851 640.704813,104.462836 642.249864,104.462836 C643.922395,104.462836 646.359803,102.27891 646.359803,101.374865 C646.359803,98.9319146 645.844786,99.063966 644.049875,94.6961123 C643.789817,94.051092 642.249864,91.6081412 641.989806,90.963121 C640.582433,85.9553259 638.007347,78.2353983 638.007347,68.7276981 C638.007347,61.3937669 639.934837,52.6580594 640.832292,48.676202 C641.739946,44.8213171 643.152419,44.0391666 643.152419,42.3732875 C643.152419,41.3473497 642.637402,40.575357 641.21983,40.575357 C640.704813,40.575357 639.552398,38.650454 638.394884,38.650454 C635.952377,38.650454 635.43736,40.8343809 635.30988,45.8472549 L635.30988,45.8472549 L635.30988,45.8472549 Z" id="Shape" fill="#1A1A1A"></path>
            </g>
        </g>
        <g id="basket" transform="translate(1119.000000, 226.500000) scale(-1, 1) rotate(-180.000000) translate(-1119.000000, -226.500000) translate(861.000000, 11.000000)" stroke="#B0C758">
            <path d="M43.992353,315.634488 C43.6876119,306.506459 44.946427,296.432618 48.8377362,288.505585 C53.7956393,278.415355 55.6639365,267.280987 58.6902499,256.4018 C62.665949,242.127989 66.2431405,228.399659 74.4641173,216.090047 C81.8200983,205.065711 85.7020309,192.257441 92.5446403,181.024746 C98.8715341,170.644218 106.708068,161.834581 112.176999,150.875797 C116.157386,142.894917 120.90197,136.042458 126.152894,129.117423 C131.825766,121.625838 136.080421,113.176734 141.544663,105.530635 C145.046841,100.625988 149.819555,96.99491 153.021681,92.0083235 C158.910216,82.8334725 159.765835,70.5847304 166.137268,61.8148933 C173.019728,52.3333556 182.424507,45.0852467 189.827371,35.9408303 C193.442069,31.4622669 198.106952,26.7238392 200.950421,21.8262152 C202.783556,18.6586793 202.024047,14.9175688 203.425856,11.7242806 C204.499482,9.28483309 207.078061,7.96912341 207.727394,5.36579749" id="Shape" stroke-width="2.87404759"></path>
            <path d="M136.905566,341.204205 C140.564803,331.961462 142.229158,320.738131 144.081046,310.975658 C147.852803,291.059747 151.319819,270.977616 155.194719,251.085116 C158.082727,236.247094 159.086028,223.789992 165.328532,210.267681 C170.223143,199.653041 172.26022,187.696939 177.8698,177.407715 C182.504209,168.89306 187.659021,160.413521 192.738821,151.964418 C196.789533,145.229014 203.662617,141.408306 208.390792,135.244136 C215.873357,125.502733 217.79557,112.228581 225.512552,102.363099 C232.880254,92.970524 240.585515,83.8471777 247.219494,73.8061121 C252.003929,66.5673678 257.212658,64.0483222 263.176206,58.8674227 C268.335707,54.3771537 275.351785,42.3274068 283.089864,42.6598459" id="Shape" stroke-width="2.87404759"></path>
            <path d="M217.3619,364.507718 C220.533552,355.220493 221.307125,341.922929 222.017407,332.06213 C223.255124,314.946199 223.409839,297.748328 224.152938,280.620691 C225.008558,261.336882 224.853843,241.657424 229.108497,222.862909 C231.34014,212.966993 237.263837,204.307188 242.184234,195.717617 C247.083533,187.163163 249.985606,177.477948 256.584422,170.019138 C268.530273,156.513215 283.139092,148.211602 292.009401,132.116399 C298.118288,121.033535 307.148001,111.032268 316.812981,102.53166 C324.872211,95.4544528 330.662292,85.3993405 339.183321,79.2141003" id="Shape" stroke-width="2.87404759"></path>
            <path d="M295.55143,375.876199 C294.320745,358.383347 296.114029,339.637996 296.114029,321.934443 L296.114029,264.94689 C296.114029,254.477399 296.130438,244.012591 296.114029,233.538418 C296.109341,229.223733 295.640509,224.394002 297.093889,220.224466 C298.521484,216.174328 301.475128,215.062296 303.87555,212.08439 C309.180389,205.519889 312.616931,198.875789 318.519532,192.760782 C320.741797,190.461802 322.856232,188.282219 325.14179,186.060496 C336.0398,175.422444 342.779266,162.504142 352.856819,151.299539 C356.769226,146.931009 362.592125,145.353094 366.413109,141.169511 C368.520511,138.854143 369.863716,135.827075 371.912514,133.37358 C377.196255,127.043191 384.561613,119.600769 391.301079,115.021537" id="Shape" stroke-width="2.87404759"></path>
            <path d="M323.878286,376.440409 C321.018408,365.331793 323.135187,350.945607 322.621815,339.45773 C321.735722,319.44115 319.328268,300.073061 316.646546,280.295275 C314.825132,266.843197 316.482455,253.2249 314.42428,239.72834 C313.210004,231.805989 311.297168,224.066245 310.350126,216.078342 C309.904735,212.419171 310.103989,207.430243 308.636544,204.513207" id="Shape" stroke-width="2.87404759"></path>
            <path d="M352.212175,366.783287 C352.11372,334.431344 343.932594,303.933568 338.592592,272.588307 C337.235322,264.57231 333.543267,256.771697 330.681045,249.116233 C328.20561,242.504909 326.717067,235.863151 323.885319,229.361859 C320.55192,221.720442 316.01831,210.920853 308.584972,206.521888" id="Shape" stroke-width="2.87404759"></path>
            <path d="M310.849433,201.408881 C337.443953,215.795066 352.777118,247.507884 359.5705,275.800324 C363.414926,291.848704 362.840606,309.325168 364.69015,325.776222 C365.888017,336.440025 365.543425,347.923221 368.070432,358.259268" id="Shape" stroke-width="2.87404759"></path>
            <path d="M408.406431,337.203231 C408.251716,301.78442 396.270703,271.895335 385.921227,238.670154 C381.80019,225.396001 380.747661,212.049274 372.301645,200.123606 C362.721054,186.629388 345.430514,183.443123 330.371616,180.315386" id="Shape" stroke-width="2.87404759"></path>
            <path d="M487.060105,280.400626 C487.728191,270.350196 484.598735,257.963327 481.3802,248.486472 C479.542377,243.05039 476.952078,237.628355 474.757942,232.281236 C471.876966,225.267239 470.154007,217.326159 466.766693,210.553298 C463.61145,204.243978 458.470703,198.924952 454.745829,192.884862 C450.669331,186.280561 447.907908,178.978606 444.007222,172.364941 C438.707071,163.35631 434.881399,157.594812 427.309755,150.751717 C421.472791,145.488879 417.215792,139.170195 411.838284,133.642809 C408.746334,130.454203 390.121966,115.166687 387.8997,118.439573" id="Shape" stroke-width="2.87404759"></path>
            <path d="M443.432902,311.090373 C444.01191,297.827926 441.264552,284.310297 439.356404,271.321761 C437.748309,260.358294 432.914647,250.298499 429.667982,239.878172 C426.726058,230.441116 424.030272,222.549199 418.2566,214.343572 C413.591718,207.713518 408.176703,201.413563 404.421355,194.401908 C399.826797,185.812337 395.316629,177.187649 388.863151,169.700746 C383.434071,163.410155 378.030777,157.810195 370.309107,154.382795 C365.667666,152.331974 360.374547,152.36709 355.704976,150.426302 C351.124483,148.527653 347.74889,144.751426 343.262163,142.69124 C338.269098,140.392259 332.800168,137.833415 327.624258,135.946472 C320.60818,133.396992 312.9709,132.095329 306.137667,129.133811 C300.514022,126.699046 295.905399,122.274328 290.105942,120.249259 C277.7147,115.943939 265.358621,114.234921 253.461998,108.452353 C239.847104,101.848053 225.671955,99.7480676 211.916412,94.1832244 C204.459632,91.1584968 196.538708,89.1053341 189.121779,85.9073636 C181.594674,82.6602296 176.132776,76.1893727 168.380631,73.4970842 C159.700199,70.4700155 147.852803,71.2519497 138.668376,71.256632 C126.645168,71.2730198 114.333628,69.4563104 102.453414,72.0104728 C88.362655,75.0539293 83.3930311,85.4321162 73.9694991,94.836397 C70.2375929,98.5658018 68.4560296,102.955403 65.643035,107.234971 C61.379004,113.724557 55.6803457,119.01783 50.7904233,124.620131" id="Shape" stroke-width="2.87404759"></path>
            <path d="M390.175881,181.516381 C391.919938,165.435225 386.08063,148.122639 381.769716,132.893651 C377.864342,119.083381 374.598924,105.715584 372.301645,91.8023049 C371.087369,84.4605512 364.978482,75.7422187 357.078655,73.8459112 C350.369663,72.2305381 342.174472,77.5612693 337.668992,80.4993754" id="Shape" stroke-width="2.87404759"></path>
            <path d="M289.880902,147.993877 C289.257355,125.28735 290.860762,102.377146 290.007487,79.6729599 C289.531622,66.7335873 289.655862,52.2420519 281.950601,41.7187155" id="Shape" stroke-width="2.87404759"></path>
            <path d="M177.140766,105.364416 C177.180616,82.3067204 177.000116,57.5751242 181.245394,34.9083962 C183.205113,24.4552935 188.329452,7.03033412 199.80647,3.07618171" id="Shape" stroke-width="2.87404759"></path>
            <path d="M11.6968305,301.988097 C11.2819137,293.040335 14.5051368,281.142761 16.3664015,272.288643 C18.6238297,261.540559 23.570012,251.508858 28.5091617,241.772138 C38.8422286,221.427802 45.0659793,200.17277 61.6884334,183.712352 C68.7701474,176.693673 74.6422737,167.834873 82.3451906,161.471708 C87.6898804,157.056355 93.4026037,153.214576 98.84106,148.986512 C105.894644,143.498926 114.964208,140.684899 121.612252,135.48293" id="Shape" stroke-width="2.87404759"></path>
            <path d="M483.614186,225.840814 C484.497936,215.151258 483.937681,198.487163 479.399383,188.694256 C476.255861,181.91203 470.861944,174.654557 466.712777,168.139219 C461.203996,159.500484 458.641827,150.676801 454.150412,141.532385 C444.916757,122.714459 432.675542,108.906531 415.663957,96.8357138" id="Shape" stroke-width="2.87404759"></path>
            <path d="M504.055281,236.645085 C505.084368,223.087656 499.910802,209.42956 494.641125,197.220617 C489.842625,186.081566 479.818988,182.909348 469.235096,177.786976 C461.323548,173.961585 455.48424,170.140877 448.388461,164.878038 C440.310478,158.891793 428.934259,155.37543 419.40524,152.472441 C408.746334,149.234671 398.246832,145.519313 387.594959,142.422011 C376.28672,139.128054 365.219931,135.496977 355.365073,128.433816 C347.859066,123.063286 340.985982,123.861608 332.045347,120.478689 C319.468917,115.730897 308.20053,108.492152 294.981799,105.504883 C288.52832,104.039341 280.886352,104.83064 274.878264,101.944039 C269.435119,99.3196426 265.203907,93.9725235 259.638866,91.2498005 C251.417889,87.2441434 242.842943,83.8120609 234.586804,79.7478758 C221.572016,73.3378881 209.888711,63.266388 195.390068,61.7446597 C181.400108,60.2744361 167.14057,58.8416703 153.361584,56.9008815 C139.821703,54.985845 125.536379,52.3474023 111.912108,55.0069151 C96.5742551,58.0082315 87.0546125,65.7292467 76.280843,76.9478958" id="Shape" stroke-width="2.87404759"></path>
            <path d="M90.4466152,108.773087 C91.2201887,95.1992706 94.1269498,82.7234399 96.803983,69.5218618 C97.6783555,65.2376114 98.3417534,60.681791 99.361464,56.3530593 C100.850007,50.0133052 103.862255,47.1103159 107.476953,42.1869396 C115.414287,31.3826688 123.185184,17.6707265 135.250587,10.4272999 C144.786639,4.71262489 157.52716,4.66112024 168.07589,1.95244391 C180.802347,-1.32980694 193.826512,3.05511163 206.538904,4.61663896 C218.240961,6.05876914 230.013344,13.3513593 241.405972,17.136951 C262.212756,24.0502796 279.892427,33.796364 299.196603,44.1511397 C308.017685,48.8848852 317.720172,51.1347019 326.620956,55.6788166 C341.97053,63.4958178 357.716268,70.6877397 373.574525,77.4465544 C385.607109,82.5689259 396.655146,88.1618626 408.411119,93.5979442 C417.740885,97.9219937 427.47619,100.761773 436.810644,105.359733 C445.195712,109.496493 446.409988,117.699779 450.369278,125.736846 C455.324837,135.791958 460.943794,143.035384 468.599828,150.782152 C475.68623,157.953004 479.019629,167.256616 483.529797,176.145851 C492.233671,193.29924 495.745226,212.578367 495.745226,231.717026" id="Shape" stroke-width="2.87404759"></path>
            <path d="M123.874368,17.2774182 C155.014219,14.9714146 188.073938,16.0436478 218.885606,22.4887523 C244.420565,27.8311891 268.949878,38.715058 293.976153,46.0966107 C306.428343,49.7628053 317.021612,57.5938532 328.280623,63.7744111 C338.044058,69.1262124 347.289434,75.1920554 357.327137,80.5251278 C372.325086,88.4896195 386.596346,96.3230084 402.54837,102.311594 C412.351656,105.989495 432.90527,111.200829 437.893647,120.677684 C442.288951,129.037825 441.295026,144.831024 435.67607,152.371773 C431.156525,158.432933 424.402994,166.692406 417.996398,170.812778 C413.155703,173.910081 407.288265,174.778636 402.124076,177.342163 C390.532194,183.098978 377.845588,193.643385 368.958869,203.225591 C361.752915,210.991087 359.075882,221.2569 350.594703,227.437458 C342.240109,233.52203 327.485952,238.11765 317.192736,239.367808 C300.230378,241.423312 280.820715,243.464769 263.844293,241.313279 C242.779651,238.635037 220.953157,231.87154 200.394854,226.383954 C167.935241,217.719467 135.210736,209.132237 105.189051,193.718301 C91.9890739,186.950121 78.4491931,180.186624 71.742545,166.343579 C66.8362136,156.222916 69.299928,141.888235 69.299928,130.934133" id="Shape" stroke-width="2.87404759"></path>
            <path d="M43.2328444,165.02787 C43.2328444,173.926468 42.6796222,182.279586 48.242319,189.787559 C52.6329348,195.712935 59.154394,199.69284 64.935098,204.094146 C85.8356481,220.025471 109.720317,226.908365 135.112282,232.065853 C146.999528,234.479548 158.317143,235.568169 169.374556,240.056097 C185.971225,246.81023 204.021273,249.797499 221.25321,254.652983 C242.484287,260.62284 263.260596,265.611768 285.180857,266.763599 C294.412168,267.250552 301.514979,269.975616 310.668932,270.743504 C324.164274,271.8649 335.08807,272.424428 348.09817,268.463253 C363.895479,263.659273 373.379959,254.376731 386.204871,244.696198 C395.740923,237.501935 399.625199,229.820719 405.893489,219.465943 C412.557942,208.453313 422.511255,200.072101 433.285024,193.453754 C444.947231,186.275879 467.650442,169.705428 458.726216,153.099861" id="Shape" stroke-width="2.87404759"></path>
            <path d="M473.855439,226.074926 C471.15262,231.232414 465.437553,233.75146 460.709378,236.40629 C455.034161,239.587873 449.626179,244.370782 444.347126,248.226608 C438.547668,252.45233 432.76462,256.392436 426.951098,260.641569 C417.325968,267.669613 409.529285,274.084283 401.073891,282.449106 C391.544872,291.88148 380.775791,300.311855 370.459133,308.503435 C363.426647,314.103395 356.194906,319.490313 347.134719,321.246154 C328.109499,324.938101 307.867659,323.765199 288.338443,323.582592 C249.741813,323.222059 216.628178,310.453589 180.921899,296.861043 C161.352833,289.409257 141.399325,286.939375 121.152796,283.179536 C91.1451755,277.612351 59.5505575,269.9405 33.5795845,252.990788 C24.0435327,246.775113 21.1414599,241.727657 18.5441282,230.76419 C16.9665071,224.075609 16.5961294,215.74122 13.9612911,209.724541" id="Shape" stroke-width="2.87404759"></path>
            <path d="M156.737178,17.8509927 C145.569589,15.7650544 139.967041,31.3381875 138.169069,39.3237493 C137.025118,44.3969573 135.337321,49.3788616 134.636417,54.5878545 C132.664976,69.3626656 127.064773,78.8746379 118.843796,91.298964 C111.541731,102.342029 103.585644,114.099136 102.233063,127.621447 C101.618892,133.776253 99.4903929,141.967833 102.1979,147.97749 C105.493792,155.330949 116.532452,156.656023 123.600101,158.423569 C136.706312,161.689432 150.855675,166.249935 163.830613,170.662947 C185.750873,178.105368 208.252486,185.702304 229.399173,194.994211 C236.769219,198.231981 244.666702,199.365083 251.823429,202.183792 C256.373448,203.984114 260.707804,207.615191 265.534434,209.55598 C272.135594,212.217834 279.468134,214.832866 286.486555,216.338206 C297.103266,218.618457 314.433657,221.521447 324.433853,216.354594 C327.239815,214.903099 328.629903,213.835548 330.570869,211.400783 C334.492653,206.451655 337.884655,201.933292 342.779266,197.389177 C351.124483,189.607293 357.40215,181.158189 364.63389,172.688016 C369.973892,166.432542 375.037282,156.897158 381.075844,151.763081 C387.665284,146.172486 397.69361,144.486879 404.329933,138.790933 C411.971902,132.221749 413.061937,114.403482 407.316395,105.989495 C406.299029,104.486495 405.494981,103.475131 403.772022,102.611258" id="Shape" stroke-width="2.87404759"></path>
            <path d="M97.8119728,36.032134 C107.247226,28.0910535 120.252637,26.993068 131.945318,26.8830354 C148.717799,26.7191569 165.513721,24.7643214 182.211188,27.3465772 C215.167765,32.4712898 246.978046,45.3099943 275.956579,61.5058654 C284.358056,66.2044941 293.851913,68.0656848 301.939272,72.9235097 C314.370364,80.4010484 328.428305,84.7602146 341.595464,90.9454548 C353.766354,96.6601298 366.476402,100.890534 378.68011,106.488153 C382.329971,108.159713 390.560324,109.754016 390.736136,114.457327" id="Shape" stroke-width="2.87404759"></path>
            <path d="M132.943932,101.389193 C132.974406,86.4505036 136.579727,75.203761 143.162135,61.7095429 C145.661011,56.5871714 148.502136,53.1246543 150.459511,47.8571333 C152.302023,42.9150281 153.237344,38.1016845 154.341444,32.9839952 C155.897968,25.7756854 155.110329,16.9918015 159.674413,10.916594 C162.571798,7.06545092 167.710201,5.05208736 169.737901,0.742084644" id="Shape" stroke-width="2.87404759"></path>
            <path d="M310.849433,201.214568 C308.390407,197.944023 304.18498,197.857401 300.760159,196.431659 C293.926926,193.598903 287.203869,190.375181 280.27687,187.563495 C273.145928,184.665188 265.883714,182.958511 258.741051,180.280269 C243.508686,174.570277 225.772754,171.92481 211.084234,164.908473 C203.221914,161.146292 195.924537,155.579108 188.343517,151.444689 C181.111776,147.495219 175.293566,142.026361 167.285908,140.031727 C152.721628,136.400649 136.326558,137.273887 121.612252,135.48293" id="Shape" stroke-width="2.87404759"></path>
            <path d="M390.560324,115.307154 C399.240757,114.429234 406.943674,111.765039 415.342807,115.051972 C423.695057,118.313153 432.734146,120.747918 440.406589,125.591696 C449.09171,131.079282 461.827543,142.262815 460.435111,154.242328" id="Shape" stroke-width="2.87404759"></path>
            <path d="M3.19689834,255.964011 C3.12657348,242.167788 10.534126,226.234122 20.1944184,216.20008 C32.2949836,203.628263 42.344407,189.125022 54.4051214,176.658556 C65.7625873,164.913155 77.5701322,157.545649 92.9431479,150.810245 C100.184265,147.642709 110.175084,147.677826 116.10347,143.105618" id="Shape" stroke-width="2.87404759"></path>
            <path d="M64.9585396,138.893942 C67.9309373,134.560528 70.9267766,129.592671 74.9774888,127.956228 C78.3999657,126.579649 82.6499317,127.527803 86.2247791,127.527803 C93.8620595,127.527803 101.304774,128.120106 108.64669,131.631787 C112.636454,133.532777 117.291961,136.056504 121.612252,135.487612" id="Shape" stroke-width="2.87404759"></path>
            <path d="M21.3266487,200.273438 C22.3862101,193.573151 22.6464121,186.954804 24.5873784,180.570568 C26.5517863,174.064595 28.8982926,167.720158 30.2579067,161.036259 C31.910541,152.886819 38.1882074,145.53336 42.649148,138.456153 C55.9850868,117.257307 68.4161789,94.9604763 79.0047595,72.3054539 C86.7240856,55.7888493 92.1531652,38.2210816 108.037208,27.0586194 C119.554077,18.9723894 131.127206,9.7788095 144.690528,6.57147451" id="Shape" stroke-width="2.87404759"></path>
            <path d="M60.42493,141.733721 C60.42493,121.555604 62.3963704,106.27277 72.4598587,88.1759093 C78.6085961,77.0977275 86.2247791,67.4406057 96.6797424,59.8998568" id="Shape" stroke-width="2.87404759"></path>
            <path d="M43.992353,162.199796 C48.6830215,152.900866 42.7241612,141.183558 46.8241009,132.0766" id="Shape" stroke-width="2.87404759"></path>
            <path d="M131.999234,120.703437 C152.309055,119.525853 172.785312,131.123764 191.390928,137.332415 C212.786096,144.486879 234.333635,152.566086 255.22012,161.689432 C271.636288,168.857943 288.104027,175.008066 305.178905,179.790975 C312.488002,181.837114 320.683193,181.382937 327.279666,184.351478" id="Shape" stroke-width="2.87404759"></path>
            <path d="M170.338007,352.572686 C170.338007,374.949115 168.345469,398.341591 172.600123,420.205314 C176.632082,440.870384 202.197515,426.893895 212.490731,417.316372 C225.573501,405.161274 237.165383,392.331934 251.933604,381.991206 C257.651016,377.980866 263.764591,374.368517 269.113969,370.348814 C276.870802,364.517083 284.662797,358.49338 292.189902,352.422854 C302.642521,343.987798 308.505271,336.809922 315.957362,325.54211 C324.014248,313.375307 326.895223,300.457004 330.547428,286.230015 C336.295313,263.874656 339.546666,239.803256 341.600152,216.836865 C342.338564,208.528228 343.168397,200.198522 343.1473,191.817311 C343.128546,186.875206 342.92226,182.040792 343.46845,177.117416 C343.883366,173.292025 345.107019,168.345237 343.522365,164.648608" id="Shape" stroke-width="8.32634663"></path>
            <path d="M43.992353,315.634488 C43.6876119,306.506459 44.946427,296.432618 48.8377362,288.505585 C53.7956393,278.415355 55.6639365,267.280987 58.6902499,256.4018 C62.665949,242.127989 66.2431405,228.399659 74.4641173,216.090047 C81.8200983,205.065711 85.7020309,192.257441 92.5446403,181.024746 C98.8715341,170.644218 106.708068,161.834581 112.176999,150.875797 C116.157386,142.894917 120.90197,136.042458 126.152894,129.117423 C131.825766,121.625838 136.080421,113.176734 141.544663,105.530635 C145.046841,100.625988 149.819555,96.99491 153.021681,92.0083235 C158.910216,82.8334725 159.765835,70.5847304 166.137268,61.8148933 C173.019728,52.3333556 182.424507,45.0852467 189.827371,35.9408303 C193.442069,31.4622669 198.106952,26.7238392 200.950421,21.8262152 C202.783556,18.6586793 202.024047,14.9175688 203.425856,11.7242806 C204.499482,9.28483309 207.078061,7.96912341 207.727394,5.36579749" id="Shape" stroke-width="2.87404759"></path>
            <path d="M136.905566,341.204205 C140.564803,331.961462 142.229158,320.738131 144.081046,310.975658 C147.852803,291.059747 151.319819,270.977616 155.194719,251.085116 C158.082727,236.247094 159.086028,223.789992 165.328532,210.267681 C170.223143,199.653041 172.26022,187.696939 177.8698,177.407715 C182.504209,168.89306 187.659021,160.413521 192.738821,151.964418 C196.789533,145.229014 203.662617,141.408306 208.390792,135.244136 C215.873357,125.502733 217.79557,112.228581 225.512552,102.363099 C232.880254,92.970524 240.585515,83.8471777 247.219494,73.8061121 C252.003929,66.5673678 257.212658,64.0483222 263.176206,58.8674227 C268.335707,54.3771537 275.351785,42.3274068 283.089864,42.6598459" id="Shape" stroke-width="2.87404759"></path>
            <path d="M217.3619,364.507718 C220.533552,355.220493 221.307125,341.922929 222.017407,332.06213 C223.255124,314.946199 223.409839,297.748328 224.152938,280.620691 C225.008558,261.336882 224.853843,241.657424 229.108497,222.862909 C231.34014,212.966993 237.263837,204.307188 242.184234,195.717617 C247.083533,187.163163 249.985606,177.477948 256.584422,170.019138 C268.530273,156.513215 283.139092,148.211602 292.009401,132.116399 C298.118288,121.033535 307.148001,111.032268 316.812981,102.53166 C324.872211,95.4544528 330.662292,85.3993405 339.183321,79.2141003" id="Shape" stroke-width="2.87404759"></path>
            <path d="M295.55143,375.876199 C294.320745,358.383347 296.114029,339.637996 296.114029,321.934443 L296.114029,264.94689 C296.114029,254.477399 296.130438,244.012591 296.114029,233.538418 C296.109341,229.223733 295.640509,224.394002 297.093889,220.224466 C298.521484,216.174328 301.475128,215.062296 303.87555,212.08439 C309.180389,205.519889 312.616931,198.875789 318.519532,192.760782 C320.741797,190.461802 322.856232,188.282219 325.14179,186.060496 C336.0398,175.422444 342.779266,162.504142 352.856819,151.299539 C356.769226,146.931009 362.592125,145.353094 366.413109,141.169511 C368.520511,138.854143 369.863716,135.827075 371.912514,133.37358 C377.196255,127.043191 384.561613,119.600769 391.301079,115.021537" id="Shape" stroke-width="2.87404759"></path>
            <path d="M323.878286,376.440409 C321.018408,365.331793 323.135187,350.945607 322.621815,339.45773 C321.735722,319.44115 319.328268,300.073061 316.646546,280.295275 C314.825132,266.843197 316.482455,253.2249 314.42428,239.72834 C313.210004,231.805989 311.297168,224.066245 310.350126,216.078342 C309.904735,212.419171 310.103989,207.430243 308.636544,204.513207" id="Shape" stroke-width="2.87404759"></path>
            <path d="M352.212175,366.783287 C352.11372,334.431344 343.932594,303.933568 338.592592,272.588307 C337.235322,264.57231 333.543267,256.771697 330.681045,249.116233 C328.20561,242.504909 326.717067,235.863151 323.885319,229.361859 C320.55192,221.720442 316.01831,210.920853 308.584972,206.521888" id="Shape" stroke-width="2.87404759"></path>
            <path d="M310.849433,201.408881 C337.443953,215.795066 352.777118,247.507884 359.5705,275.800324 C363.414926,291.848704 362.840606,309.325168 364.69015,325.776222 C365.888017,336.440025 365.543425,347.923221 368.070432,358.259268" id="Shape" stroke-width="2.87404759"></path>
            <path d="M408.406431,337.203231 C408.251716,301.78442 396.270703,271.895335 385.921227,238.670154 C381.80019,225.396001 380.747661,212.049274 372.301645,200.123606 C362.721054,186.629388 345.430514,183.443123 330.371616,180.315386" id="Shape" stroke-width="2.87404759"></path>
            <path d="M487.060105,280.400626 C487.728191,270.350196 484.598735,257.963327 481.3802,248.486472 C479.542377,243.05039 476.952078,237.628355 474.757942,232.281236 C471.876966,225.267239 470.154007,217.326159 466.766693,210.553298 C463.61145,204.243978 458.470703,198.924952 454.745829,192.884862 C450.669331,186.280561 447.907908,178.978606 444.007222,172.364941 C438.707071,163.35631 434.881399,157.594812 427.309755,150.751717 C421.472791,145.488879 417.215792,139.170195 411.838284,133.642809 C408.746334,130.454203 390.121966,115.166687 387.8997,118.439573" id="Shape" stroke-width="2.87404759"></path>
            <path d="M443.432902,311.090373 C444.01191,297.827926 441.264552,284.310297 439.356404,271.321761 C437.748309,260.358294 432.914647,250.298499 429.667982,239.878172 C426.726058,230.441116 424.030272,222.549199 418.2566,214.343572 C413.591718,207.713518 408.176703,201.413563 404.421355,194.401908 C399.826797,185.812337 395.316629,177.187649 388.863151,169.700746 C383.434071,163.410155 378.030777,157.810195 370.309107,154.382795 C365.667666,152.331974 360.374547,152.36709 355.704976,150.426302 C351.124483,148.527653 347.74889,144.751426 343.262163,142.69124 C338.269098,140.392259 332.800168,137.833415 327.624258,135.946472 C320.60818,133.396992 312.9709,132.095329 306.137667,129.133811 C300.514022,126.699046 295.905399,122.274328 290.105942,120.249259 C277.7147,115.943939 265.358621,114.234921 253.461998,108.452353 C239.847104,101.848053 225.671955,99.7480676 211.916412,94.1832244 C204.459632,91.1584968 196.538708,89.1053341 189.121779,85.9073636 C181.594674,82.6602296 176.132776,76.1893727 168.380631,73.4970842 C159.700199,70.4700155 147.852803,71.2519497 138.668376,71.256632 C126.645168,71.2730198 114.333628,69.4563104 102.453414,72.0104728 C88.362655,75.0539293 83.3930311,85.4321162 73.9694991,94.836397 C70.2375929,98.5658018 68.4560296,102.955403 65.643035,107.234971 C61.379004,113.724557 55.6803457,119.01783 50.7904233,124.620131" id="Shape" stroke-width="2.87404759"></path>
            <path d="M390.175881,181.516381 C391.919938,165.435225 386.08063,148.122639 381.769716,132.893651 C377.864342,119.083381 374.598924,105.715584 372.301645,91.8023049 C371.087369,84.4605512 364.978482,75.7422187 357.078655,73.8459112 C350.369663,72.2305381 342.174472,77.5612693 337.668992,80.4993754" id="Shape" stroke-width="2.87404759"></path>
            <path d="M289.880902,147.993877 C289.257355,125.28735 290.860762,102.377146 290.007487,79.6729599 C289.531622,66.7335873 289.655862,52.2420519 281.950601,41.7187155" id="Shape" stroke-width="2.87404759"></path>
            <path d="M177.140766,105.364416 C177.180616,82.3067204 177.000116,57.5751242 181.245394,34.9083962 C183.205113,24.4552935 188.329452,7.03033412 199.80647,3.07618171" id="Shape" stroke-width="2.87404759"></path>
            <path d="M11.6968305,301.988097 C11.2819137,293.040335 14.5051368,281.142761 16.3664015,272.288643 C18.6238297,261.540559 23.570012,251.508858 28.5091617,241.772138 C38.8422286,221.427802 45.0659793,200.17277 61.6884334,183.712352 C68.7701474,176.693673 74.6422737,167.834873 82.3451906,161.471708 C87.6898804,157.056355 93.4026037,153.214576 98.84106,148.986512 C105.894644,143.498926 114.964208,140.684899 121.612252,135.48293" id="Shape" stroke-width="2.87404759"></path>
            <path d="M483.614186,225.840814 C484.497936,215.151258 483.937681,198.487163 479.399383,188.694256 C476.255861,181.91203 470.861944,174.654557 466.712777,168.139219 C461.203996,159.500484 458.641827,150.676801 454.150412,141.532385 C444.916757,122.714459 432.675542,108.906531 415.663957,96.8357138" id="Shape" stroke-width="2.87404759"></path>
            <path d="M504.055281,236.645085 C505.084368,223.087656 499.910802,209.42956 494.641125,197.220617 C489.842625,186.081566 479.818988,182.909348 469.235096,177.786976 C461.323548,173.961585 455.48424,170.140877 448.388461,164.878038 C440.310478,158.891793 428.934259,155.37543 419.40524,152.472441 C408.746334,149.234671 398.246832,145.519313 387.594959,142.422011 C376.28672,139.128054 365.219931,135.496977 355.365073,128.433816 C347.859066,123.063286 340.985982,123.861608 332.045347,120.478689 C319.468917,115.730897 308.20053,108.492152 294.981799,105.504883 C288.52832,104.039341 280.886352,104.83064 274.878264,101.944039 C269.435119,99.3196426 265.203907,93.9725235 259.638866,91.2498005 C251.417889,87.2441434 242.842943,83.8120609 234.586804,79.7478758 C221.572016,73.3378881 209.888711,63.266388 195.390068,61.7446597 C181.400108,60.2744361 167.14057,58.8416703 153.361584,56.9008815 C139.821703,54.985845 125.536379,52.3474023 111.912108,55.0069151 C96.5742551,58.0082315 87.0546125,65.7292467 76.280843,76.9478958" id="Shape" stroke-width="2.87404759"></path>
            <path d="M90.4466152,108.773087 C91.2201887,95.1992706 94.1269498,82.7234399 96.803983,69.5218618 C97.6783555,65.2376114 98.3417534,60.681791 99.361464,56.3530593 C100.850007,50.0133052 103.862255,47.1103159 107.476953,42.1869396 C115.414287,31.3826688 123.185184,17.6707265 135.250587,10.4272999 C144.786639,4.71262489 157.52716,4.66112024 168.07589,1.95244391 C180.802347,-1.32980694 193.826512,3.05511163 206.538904,4.61663896 C218.240961,6.05876914 230.013344,13.3513593 241.405972,17.136951 C262.212756,24.0502796 279.892427,33.796364 299.196603,44.1511397 C308.017685,48.8848852 317.720172,51.1347019 326.620956,55.6788166 C341.97053,63.4958178 357.716268,70.6877397 373.574525,77.4465544 C385.607109,82.5689259 396.655146,88.1618626 408.411119,93.5979442 C417.740885,97.9219937 427.47619,100.761773 436.810644,105.359733 C445.195712,109.496493 446.409988,117.699779 450.369278,125.736846 C455.324837,135.791958 460.943794,143.035384 468.599828,150.782152 C475.68623,157.953004 479.019629,167.256616 483.529797,176.145851 C492.233671,193.29924 495.745226,212.578367 495.745226,231.717026" id="Shape" stroke-width="2.87404759"></path>
            <path d="M123.874368,17.2774182 C155.014219,14.9714146 188.073938,16.0436478 218.885606,22.4887523 C244.420565,27.8311891 268.949878,38.715058 293.976153,46.0966107 C306.428343,49.7628053 317.021612,57.5938532 328.280623,63.7744111 C338.044058,69.1262124 347.289434,75.1920554 357.327137,80.5251278 C372.325086,88.4896195 386.596346,96.3230084 402.54837,102.311594 C412.351656,105.989495 432.90527,111.200829 437.893647,120.677684 C442.288951,129.037825 441.295026,144.831024 435.67607,152.371773 C431.156525,158.432933 424.402994,166.692406 417.996398,170.812778 C413.155703,173.910081 407.288265,174.778636 402.124076,177.342163 C390.532194,183.098978 377.845588,193.643385 368.958869,203.225591 C361.752915,210.991087 359.075882,221.2569 350.594703,227.437458 C342.240109,233.52203 327.485952,238.11765 317.192736,239.367808 C300.230378,241.423312 280.820715,243.464769 263.844293,241.313279 C242.779651,238.635037 220.953157,231.87154 200.394854,226.383954 C167.935241,217.719467 135.210736,209.132237 105.189051,193.718301 C91.9890739,186.950121 78.4491931,180.186624 71.742545,166.343579 C66.8362136,156.222916 69.299928,141.888235 69.299928,130.934133" id="Shape" stroke-width="2.87404759"></path>
            <path d="M43.2328444,165.02787 C43.2328444,173.926468 42.6796222,182.279586 48.242319,189.787559 C52.6329348,195.712935 59.154394,199.69284 64.935098,204.094146 C85.8356481,220.025471 109.720317,226.908365 135.112282,232.065853 C146.999528,234.479548 158.317143,235.568169 169.374556,240.056097 C185.971225,246.81023 204.021273,249.797499 221.25321,254.652983 C242.484287,260.62284 263.260596,265.611768 285.180857,266.763599 C294.412168,267.250552 301.514979,269.975616 310.668932,270.743504 C324.164274,271.8649 335.08807,272.424428 348.09817,268.463253 C363.895479,263.659273 373.379959,254.376731 386.204871,244.696198 C395.740923,237.501935 399.625199,229.820719 405.893489,219.465943 C412.557942,208.453313 422.511255,200.072101 433.285024,193.453754 C444.947231,186.275879 467.650442,169.705428 458.726216,153.099861" id="Shape" stroke-width="2.87404759"></path>
            <path d="M473.855439,226.074926 C471.15262,231.232414 465.437553,233.75146 460.709378,236.40629 C455.034161,239.587873 449.626179,244.370782 444.347126,248.226608 C438.547668,252.45233 432.76462,256.392436 426.951098,260.641569 C417.325968,267.669613 409.529285,274.084283 401.073891,282.449106 C391.544872,291.88148 380.775791,300.311855 370.459133,308.503435 C363.426647,314.103395 356.194906,319.490313 347.134719,321.246154 C328.109499,324.938101 307.867659,323.765199 288.338443,323.582592 C249.741813,323.222059 216.628178,310.453589 180.921899,296.861043 C161.352833,289.409257 141.399325,286.939375 121.152796,283.179536 C91.1451755,277.612351 59.5505575,269.9405 33.5795845,252.990788 C24.0435327,246.775113 21.1414599,241.727657 18.5441282,230.76419 C16.9665071,224.075609 16.5961294,215.74122 13.9612911,209.724541" id="Shape" stroke-width="2.87404759"></path>
            <path d="M156.737178,17.8509927 C145.569589,15.7650544 139.967041,31.3381875 138.169069,39.3237493 C137.025118,44.3969573 135.337321,49.3788616 134.636417,54.5878545 C132.664976,69.3626656 127.064773,78.8746379 118.843796,91.298964 C111.541731,102.342029 103.585644,114.099136 102.233063,127.621447 C101.618892,133.776253 99.4903929,141.967833 102.1979,147.97749 C105.493792,155.330949 116.532452,156.656023 123.600101,158.423569 C136.706312,161.689432 150.855675,166.249935 163.830613,170.662947 C185.750873,178.105368 208.252486,185.702304 229.399173,194.994211 C236.769219,198.231981 244.666702,199.365083 251.823429,202.183792 C256.373448,203.984114 260.707804,207.615191 265.534434,209.55598 C272.135594,212.217834 279.468134,214.832866 286.486555,216.338206 C297.103266,218.618457 314.433657,221.521447 324.433853,216.354594 C327.239815,214.903099 328.629903,213.835548 330.570869,211.400783 C334.492653,206.451655 337.884655,201.933292 342.779266,197.389177 C351.124483,189.607293 357.40215,181.158189 364.63389,172.688016 C369.973892,166.432542 375.037282,156.897158 381.075844,151.763081 C387.665284,146.172486 397.69361,144.486879 404.329933,138.790933 C411.971902,132.221749 413.061937,114.403482 407.316395,105.989495 C406.299029,104.486495 405.494981,103.475131 403.772022,102.611258" id="Shape" stroke-width="2.87404759"></path>
            <path d="M97.8119728,36.032134 C107.247226,28.0910535 120.252637,26.993068 131.945318,26.8830354 C148.717799,26.7191569 165.513721,24.7643214 182.211188,27.3465772 C215.167765,32.4712898 246.978046,45.3099943 275.956579,61.5058654 C284.358056,66.2044941 293.851913,68.0656848 301.939272,72.9235097 C314.370364,80.4010484 328.428305,84.7602146 341.595464,90.9454548 C353.766354,96.6601298 366.476402,100.890534 378.68011,106.488153 C382.329971,108.159713 390.560324,109.754016 390.736136,114.457327" id="Shape" stroke-width="2.87404759"></path>
            <path d="M132.943932,101.389193 C132.974406,86.4505036 136.579727,75.203761 143.162135,61.7095429 C145.661011,56.5871714 148.502136,53.1246543 150.459511,47.8571333 C152.302023,42.9150281 153.237344,38.1016845 154.341444,32.9839952 C155.897968,25.7756854 155.110329,16.9918015 159.674413,10.916594 C162.571798,7.06545092 167.710201,5.05208736 169.737901,0.742084644" id="Shape" stroke-width="2.87404759"></path>
            <path d="M310.849433,201.214568 C308.390407,197.944023 304.18498,197.857401 300.760159,196.431659 C293.926926,193.598903 287.203869,190.375181 280.27687,187.563495 C273.145928,184.665188 265.883714,182.958511 258.741051,180.280269 C243.508686,174.570277 225.772754,171.92481 211.084234,164.908473 C203.221914,161.146292 195.924537,155.579108 188.343517,151.444689 C181.111776,147.495219 175.293566,142.026361 167.285908,140.031727 C152.721628,136.400649 136.326558,137.273887 121.612252,135.48293" id="Shape" stroke-width="2.87404759"></path>
            <path d="M390.560324,115.307154 C399.240757,114.429234 406.943674,111.765039 415.342807,115.051972 C423.695057,118.313153 432.734146,120.747918 440.406589,125.591696 C449.09171,131.079282 461.827543,142.262815 460.435111,154.242328" id="Shape" stroke-width="2.87404759"></path>
            <path d="M3.19689834,255.964011 C3.12657348,242.167788 10.534126,226.234122 20.1944184,216.20008 C32.2949836,203.628263 42.344407,189.125022 54.4051214,176.658556 C65.7625873,164.913155 77.5701322,157.545649 92.9431479,150.810245 C100.184265,147.642709 110.175084,147.677826 116.10347,143.105618" id="Shape" stroke-width="2.87404759"></path>
            <path d="M64.9585396,138.893942 C67.9309373,134.560528 70.9267766,129.592671 74.9774888,127.956228 C78.3999657,126.579649 82.6499317,127.527803 86.2247791,127.527803 C93.8620595,127.527803 101.304774,128.120106 108.64669,131.631787 C112.636454,133.532777 117.291961,136.056504 121.612252,135.487612" id="Shape" stroke-width="2.87404759"></path>
            <path d="M21.3266487,200.273438 C22.3862101,193.573151 22.6464121,186.954804 24.5873784,180.570568 C26.5517863,174.064595 28.8982926,167.720158 30.2579067,161.036259 C31.910541,152.886819 38.1882074,145.53336 42.649148,138.456153 C55.9850868,117.257307 68.4161789,94.9604763 79.0047595,72.3054539 C86.7240856,55.7888493 92.1531652,38.2210816 108.037208,27.0586194 C119.554077,18.9723894 131.127206,9.7788095 144.690528,6.57147451" id="Shape" stroke-width="2.87404759"></path>
            <path d="M60.42493,141.733721 C60.42493,121.555604 62.3963704,106.27277 72.4598587,88.1759093 C78.6085961,77.0977275 86.2247791,67.4406057 96.6797424,59.8998568" id="Shape" stroke-width="2.87404759"></path>
            <path d="M43.992353,162.199796 C48.6830215,152.900866 42.7241612,141.183558 46.8241009,132.0766" id="Shape" stroke-width="2.87404759"></path>
            <path d="M131.999234,120.703437 C152.309055,119.525853 172.785312,131.123764 191.390928,137.332415 C212.786096,144.486879 234.333635,152.566086 255.22012,161.689432 C271.636288,168.857943 288.104027,175.008066 305.178905,179.790975 C312.488002,181.837114 320.683193,181.382937 327.279666,184.351478" id="Shape" stroke-width="2.87404759"></path>
            <path d="M206.808482,362.836158 C191.974624,359.301066 177.914339,352.905125 163.017188,349.988089 C157.738135,348.955655 152.442673,348.157333 147.189405,346.930586 C136.73913,344.495821 126.441226,341.447682 115.92297,339.33365 C96.3046765,335.388862 77.9897373,326.869525 58.7816723,321.456855 C44.946427,317.56123 32.9302516,309.545234 19.9646905,304.631222 C10.2387616,300.946298 2.47255223,298.895477 1.15513307,286.894894 C-1.20778242,265.466618 0.161208303,247.049024 8.88149166,227.552173 C13.0306587,218.24856 17.2923456,207.139944 22.5503014,198.391177 C30.970532,184.374889 40.0025889,169.197405 50.3497209,156.562378 C61.0625421,143.484879 70.2586904,128.29569 81.8904232,116.194439 C86.960846,110.9316 92.2188018,105.139668 99.5302437,103.648374 C106.773705,102.173468 114.739168,103.091188 122.142032,103.091188 C147.097983,103.091188 174.773162,101.251067 198.017874,111.535609 C210.634155,117.112158 222.4417,124.634178 235.212696,129.791666 C243.88844,133.2893 252.997854,135.487612 261.863476,138.421036 C267.970018,140.432058 273.535059,143.718992 279.482199,146.111617 C285.347292,148.466784 291.939076,149.5039 298.1136,150.931984 C311.487045,154.024604 325.008172,156.840972 337.819019,161.904815 C364.190844,172.329824 390.6705,181.507016 416.463316,193.917296 C437.638133,204.098829 459.164575,214.392735 480.076846,225.356202 C489.870755,230.490279 505.290654,235.488571 512.456758,244.726632 C517.365434,251.059363 514.56416,262.018148 509.334334,267.660248 C504.130294,273.276596 496.143733,276.643127 489.42302,279.63742 C479.368909,284.125348 473.604614,292.476125 464.340485,298.181435 C451.649191,305.993754 439.46658,313.644536 426.411941,320.363551 C413.050216,327.237081 402.496798,339.41793 389.817225,347.473726 C376.171857,356.13353 359.389999,364.591998 344.106062,369.765875 C337.95498,371.840107 331.330378,373.865176 325.012861,375.756802 C319.633009,377.376857 313.784324,377.013983 308.057536,377.013983 C296.034328,377.013983 283.762639,377.702273 271.807412,376.335059 C249.910592,373.820695 228.299761,367.949165 206.808482,362.836158 L206.808482,362.836158 L206.808482,362.836158 Z" id="Shape" stroke-width="2.87404759"></path>
            <path d="M206.808482,362.836158 C191.974624,359.301066 177.914339,352.905125 163.017188,349.988089 C157.738135,348.955655 152.442673,348.157333 147.189405,346.930586 C136.73913,344.495821 126.441226,341.447682 115.92297,339.33365 C96.3046765,335.388862 77.9897373,326.869525 58.7816723,321.456855 C44.946427,317.56123 32.9302516,309.545234 19.9646905,304.631222 C10.2387616,300.946298 2.47255223,298.895477 1.15513307,286.894894 C-1.20778242,265.466618 0.161208303,247.049024 8.88149166,227.552173 C13.0306587,218.24856 17.2923456,207.139944 22.5503014,198.391177 C30.970532,184.374889 40.0025889,169.197405 50.3497209,156.562378 C61.0625421,143.484879 70.2586904,128.29569 81.8904232,116.194439 C86.960846,110.9316 92.2188018,105.139668 99.5302437,103.648374 C106.773705,102.173468 114.739168,103.091188 122.142032,103.091188 C147.097983,103.091188 174.773162,101.251067 198.017874,111.535609 C210.634155,117.112158 222.4417,124.634178 235.212696,129.791666 C243.88844,133.2893 252.997854,135.487612 261.863476,138.421036 C267.970018,140.432058 273.535059,143.718992 279.482199,146.111617 C285.347292,148.466784 291.939076,149.5039 298.1136,150.931984 C311.487045,154.024604 325.008172,156.840972 337.819019,161.904815 C364.190844,172.329824 390.6705,181.507016 416.463316,193.917296 C437.638133,204.098829 459.164575,214.392735 480.076846,225.356202 C489.870755,230.490279 505.290654,235.488571 512.456758,244.726632 C517.365434,251.059363 514.56416,262.018148 509.334334,267.660248 C504.130294,273.276596 496.143733,276.643127 489.42302,279.63742 C479.368909,284.125348 473.604614,292.476125 464.340485,298.181435 C451.649191,305.993754 439.46658,313.644536 426.411941,320.363551 C413.050216,327.237081 402.496798,339.41793 389.817225,347.473726 C376.171857,356.13353 359.389999,364.591998 344.106062,369.765875 C337.95498,371.840107 331.330378,373.865176 325.012861,375.756802 C319.633009,377.376857 313.784324,377.013983 308.057536,377.013983 C296.034328,377.013983 283.762639,377.702273 271.807412,376.335059 C249.910592,373.820695 228.299761,367.949165 206.808482,362.836158 L206.808482,362.836158 L206.808482,362.836158 Z" id="Shape" stroke-width="8.32634663"></path>
        </g>
    </g>
</svg>