<?xml version="1.0" encoding="UTF-8" standalone="no"?>
<svg
   xmlns:dc="http://purl.org/dc/elements/1.1/"
   xmlns:cc="http://creativecommons.org/ns#"
   xmlns:rdf="http://www.w3.org/1999/02/22-rdf-syntax-ns#"
   xmlns:svg="http://www.w3.org/2000/svg"
   xmlns="http://www.w3.org/2000/svg"
   xmlns:sodipodi="http://sodipodi.sourceforge.net/DTD/sodipodi-0.dtd"
   xmlns:inkscape="http://www.inkscape.org/namespaces/inkscape"
   version="1.1"
   id="Layer_1"
   x="0px"
   y="0px"
   viewBox="0 0 895.79999 266.49999"
   xml:space="preserve"
   sodipodi:docname="www.staffing.com.au.svg"
   width="895.79999"
   height="266.5"
   inkscape:version="1.0.2-2 (e86c870879, 2021-01-15)"><metadata
   id="metadata646"><rdf:RDF><cc:Work
       rdf:about=""><dc:format>image/svg+xml</dc:format><dc:type
         rdf:resource="http://purl.org/dc/dcmitype/StillImage" /></cc:Work></rdf:RDF></metadata><defs
   id="defs644" /><sodipodi:namedview
   pagecolor="#ffffff"
   bordercolor="#666666"
   borderopacity="1"
   objecttolerance="10"
   gridtolerance="10"
   guidetolerance="10"
   inkscape:pageopacity="0"
   inkscape:pageshadow="2"
   inkscape:window-width="2400"
   inkscape:window-height="1284"
   id="namedview642"
   showgrid="false"
   inkscape:zoom="1.215"
   inkscape:cx="447.8"
   inkscape:cy="135.80001"
   inkscape:window-x="-9"
   inkscape:window-y="-9"
   inkscape:window-maximized="1"
   inkscape:current-layer="Layer_1" />
<style
   type="text/css"
   id="style605">
	.st0{fill:#AA0132;}
	.st1{fill:#FFFFFF;}
</style>


<g
   id="g665"
   transform="translate(-52.200001,-104.3)"><g
     id="g623">
	<path
   class="st0"
   d="m 133.6,180.7 c -4.8,-3.5 -10.4,-5.2 -16.9,-5.2 -6.5,0 -11.6,1.4 -15.5,4.1 -3.9,2.7 -5.8,6.6 -5.8,11.5 0,4.3 1.9,7.5 5.7,9.4 3.8,2 9.6,3.6 17.4,5 l 13.4,2 c 14.6,2.5 26,6.5 34.1,12.2 8.2,5.6 12.3,15.1 12.3,28.3 0,13.9 -5.5,24.4 -16.6,31.4 C 150.6,286.4 136,290 118,290 100.8,290 86.6,286.3 75.5,278.9 64.4,271.5 57.7,261.5 55.4,248.7 L 87.7,244 c 1.7,7.6 5.1,13.4 10.3,17.3 5.2,3.9 12,5.8 20.2,5.8 7.5,0 13.4,-1.6 17.9,-4.7 4.5,-3.1 6.7,-7.4 6.7,-12.9 0,-4.5 -2.1,-7.9 -6.2,-10.2 -4.1,-2.3 -10.3,-4.1 -18.4,-5.5 l -14.4,-2.2 c -13.1,-2.1 -23.6,-6 -31.5,-11.7 -7.9,-5.6 -11.9,-14.7 -11.9,-27.3 0,-8.1 2.5,-15.2 7.6,-21.4 5,-6.1 11.9,-10.8 20.5,-14 8.6,-3.2 18,-4.8 28.3,-4.8 15.2,0 28.2,3.6 38.9,10.7 10.7,7.1 17,16.4 19,27.8 l -31.8,4.5 c -1.4,-6.3 -4.5,-11.2 -9.3,-14.7 z"
   id="path607" />
	<path
   class="st0"
   d="M 269,259.9 V 287 c -4.6,0.3 -12.3,0.5 -22.8,0.5 -9.4,0 -16.9,-0.9 -22.4,-2.6 -5.5,-1.7 -9.5,-4.9 -12.2,-9.4 -2.6,-4.6 -4,-11.1 -4,-19.7 V 179 h -20.9 v -23.3 h 20.9 v -36.8 h 34.8 v 36.8 H 270 V 179 h -27.6 v 68 c 0,5.5 1.1,9 3.2,10.6 2.1,1.6 6.2,2.4 12.2,2.4 H 269 Z"
   id="path609" />
	<path
   class="st0"
   d="m 369.8,280.2 c -0.7,-3.2 -1,-7.1 -1,-11.5 -3.6,6.8 -9.5,12 -17.5,15.8 -8,3.7 -16.7,5.6 -26,5.6 -7.8,0 -15,-1.6 -21.7,-4.7 -6.7,-3.1 -12,-7.7 -16,-13.5 -4,-5.9 -6,-12.8 -6,-20.7 0,-13.4 4.5,-23.3 13.5,-29.8 9,-6.5 22.6,-10.8 40.9,-12.9 12.7,-1.7 21.4,-3.5 25.8,-5.6 4.5,-2.1 6.7,-5.2 6.7,-9.3 0,-5 -1.9,-8.9 -5.7,-11.8 -3.8,-2.9 -9.5,-4.3 -17.1,-4.3 -6.3,0 -11.8,1.7 -16.6,5 -4.8,3.3 -8.2,8.2 -10.2,14.7 l -32.3,-5 c 2.8,-12.4 9.6,-22.1 20.4,-29.1 10.8,-7 24,-10.4 39.7,-10.4 19,0 33.2,3.8 42.6,11.4 9.4,7.6 14,18 14,31 v 65.8 c 0,7.6 0.2,13.3 0.6,17 0.4,3.7 1.4,6.8 2.9,9.3 h -34.3 c -1.2,-1.5 -2.1,-3.8 -2.7,-7 z m -11.3,-53.9 c -4.7,1.1 -10.8,2.1 -18.3,3.1 -7,1.2 -12.6,3.4 -16.9,6.6 -4.3,3.2 -6.5,7.7 -6.5,13.5 0,5.3 1.7,9.4 5.1,12.3 3.4,2.9 8.1,4.3 14,4.3 5.1,0 10.2,-1.1 15.1,-3.2 5,-2.1 9.1,-5.5 12.4,-10.1 3.3,-4.6 5,-10.2 5,-17 v -13.7 c -1.9,1.7 -5.2,3.1 -9.9,4.2 z"
   id="path611" />
	<path
   class="st0"
   d="m 477.6,133.4 c -2.6,2.1 -4,5.8 -4,11.1 v 11.2 h 27.6 V 179 H 473.6 V 287 H 438.8 V 179 H 418 v -23.3 h 20.9 v -15.1 c 0,-13.4 3.8,-22.8 11.4,-28.2 7.6,-5.4 18.5,-8.1 32.5,-8.1 5.5,0 12.7,0.5 21.6,1.5 V 131 c -7.9,-0.5 -13,-0.7 -15.1,-0.7 -5.2,0 -9.1,1 -11.7,3.1 z"
   id="path613" />
	<path
   class="st0"
   d="m 570.7,133.4 c -2.6,2.1 -4,5.8 -4,11.1 v 11.2 h 27.6 V 179 H 566.7 V 287 H 531.9 V 179 H 511 v -23.3 h 20.9 v -15.1 c 0,-13.4 3.8,-22.8 11.4,-28.2 7.6,-5.4 18.5,-8.1 32.5,-8.1 5.5,0 12.7,0.5 21.6,1.5 V 131 c -7.9,-0.5 -13,-0.7 -15.1,-0.7 -5.1,0 -9,1 -11.6,3.1 z"
   id="path615" />
	<path
   class="st0"
   d="M 648.9,107.2 V 137 h -34.8 v -29.8 z m 0,48.4 V 287 H 614.1 V 155.6 Z"
   id="path617" />
	<path
   class="st0"
   d="m 709.5,173 c 9.8,-13.7 23.6,-20.6 41.5,-20.6 13.4,0 24.5,4.1 33.2,12.2 8.7,8.1 13,20 13,35.8 V 287 h -34.8 v -77.7 c 0,-10.3 -2,-17.6 -6.1,-22.1 -4.1,-4.5 -10.2,-6.7 -18.5,-6.7 -7.8,0 -14.4,3 -19.7,9.1 -5.4,6 -8.1,14.7 -8.1,26 V 287 H 675.2 V 155.6 h 33.3 V 173 Z"
   id="path619" />
	<path
   class="st0"
   d="m 947.9,277 c 0,20.5 -6,35.4 -17.9,44.7 -11.9,9.3 -27.7,13.9 -47.4,13.9 -16.4,0 -30.2,-3.5 -41.5,-10.4 -11.3,-7 -18.9,-17.8 -22.8,-32.5 l 34.3,-4.2 c 2,7.5 5.5,12.9 10.4,16.3 5,3.4 11.5,5.1 19.6,5.1 20.4,0 30.5,-11.3 30.5,-33.8 v -12.7 h -1 c -3.8,5.5 -9,9.6 -15.5,12.4 -6.5,2.8 -14.3,4.2 -23.2,4.2 -10.8,0 -20.4,-2.6 -28.9,-7.8 -8.5,-5.2 -15.2,-12.7 -20.1,-22.4 -4.9,-9.7 -7.3,-20.9 -7.3,-33.7 0,-12.7 2.4,-24 7.3,-33.6 4.9,-9.7 11.7,-17.1 20.4,-22.4 8.7,-5.2 18.5,-7.8 29.4,-7.8 8.8,0 16.6,1.6 23.5,4.7 6.9,3.1 12.2,7.9 16,14.2 h 1 V 155.6 H 948 Z m -41.5,-33.4 c 5.6,-6.9 8.4,-16 8.4,-27.4 0,-11.3 -2.8,-20.3 -8.4,-27.1 -5.6,-6.8 -13.2,-10.2 -22.6,-10.2 -9.6,0 -17.2,3.4 -22.8,10.2 -5.6,6.8 -8.4,15.8 -8.4,27.1 0,11.4 2.8,20.6 8.4,27.4 5.6,6.9 13.2,10.3 22.8,10.3 9.5,0 17,-3.4 22.6,-10.3 z"
   id="path621" />
</g><rect
     x="52.200001"
     y="316.70001"
     class="st0"
     width="895.70001"
     height="54.099998"
     id="rect625" /><g
     id="g639">
	<path
   class="st1"
   d="m 700.5,354.4 c 1.4,-1.5 2.3,-3.3 2.8,-5.4 l 10.6,1.2 c -1,3.9 -3,7.3 -6.2,10.1 -3.1,2.8 -7.5,4.2 -13.1,4.2 -4,0 -7.5,-0.8 -10.5,-2.5 -3,-1.7 -5.3,-4.1 -6.9,-7.2 -1.6,-3.1 -2.4,-6.8 -2.4,-10.9 0,-4.1 0.8,-7.8 2.4,-11 1.6,-3.1 3.9,-5.5 6.9,-7.2 3,-1.7 6.5,-2.5 10.5,-2.5 5.5,0 9.7,1.3 12.7,3.8 3,2.6 5,5.4 6,8.6 l -10.2,2.3 c -1.4,-4.6 -4.3,-6.9 -8.5,-6.9 -2.8,0 -5.1,1.1 -6.7,3.3 -1.6,2.2 -2.4,5.4 -2.4,9.6 0,4.1 0.8,7.3 2.4,9.5 1.6,2.2 3.8,3.3 6.7,3.3 2.6,0 4.6,-0.8 5.9,-2.3 z"
   id="path627" />
	<path
   class="st1"
   d="m 748.6,325.6 c 3,1.7 5.4,4.1 7,7.2 1.6,3.1 2.4,6.8 2.4,11 0,4.2 -0.8,7.8 -2.4,10.9 -1.6,3.1 -3.9,5.5 -7,7.2 -3,1.7 -6.6,2.5 -10.7,2.5 -4.1,0 -7.7,-0.8 -10.8,-2.5 -3.1,-1.7 -5.4,-4.1 -7,-7.2 -1.6,-3.1 -2.4,-6.8 -2.4,-10.9 0,-4.2 0.8,-7.9 2.4,-11 1.6,-3.1 4,-5.5 7,-7.2 3.1,-1.7 6.7,-2.5 10.8,-2.5 4.1,0 7.6,0.8 10.7,2.5 z m -3.8,27.7 c 1.7,-2.2 2.5,-5.3 2.5,-9.5 0,-4.2 -0.8,-7.4 -2.5,-9.6 -1.7,-2.2 -4,-3.3 -7,-3.3 -3,0 -5.3,1.1 -7,3.3 -1.7,2.2 -2.5,5.4 -2.5,9.6 0,4.1 0.8,7.3 2.5,9.5 1.7,2.2 4,3.3 7,3.3 3,0 5.3,-1.1 7,-3.3 z"
   id="path629" />
	<path
   class="st1"
   d="m 820.8,326.7 c 2.5,2.4 3.7,6 3.7,10.7 v 26 H 814.1 V 340 c 0,-3.1 -0.6,-5.3 -1.7,-6.6 -1.1,-1.3 -2.8,-2 -5.1,-2 -2.1,0 -4,0.9 -5.4,2.7 -1.4,1.8 -2.2,4.4 -2.2,7.8 v 21.5 H 789.3 V 340 c 0,-3.1 -0.6,-5.3 -1.7,-6.6 -1.1,-1.3 -2.8,-2 -5.1,-2 -2.1,0 -4,0.9 -5.4,2.7 -1.5,1.8 -2.2,4.4 -2.2,7.8 v 21.5 H 764.5 V 324 h 10 v 5.3 h 0.3 c 2.9,-4.2 6.8,-6.3 11.9,-6.3 2.5,0 4.8,0.5 6.8,1.6 2,1.1 3.6,2.7 4.7,4.9 1.8,-2.1 3.7,-3.7 5.8,-4.9 2.1,-1.1 4.6,-1.7 7.6,-1.7 3.6,0.2 6.7,1.4 9.2,3.8 z"
   id="path631" />
	<path
   class="st1"
   d="m 844.6,352.2 v 11.3 h -11.8 v -11.3 z"
   id="path633" />
	<path
   class="st1"
   d="m 877.5,361.5 c -0.2,-1 -0.3,-2.1 -0.3,-3.5 -1.1,2 -2.8,3.6 -5.3,4.7 -2.4,1.1 -5,1.7 -7.8,1.7 -2.3,0 -4.5,-0.5 -6.5,-1.4 -2,-0.9 -3.6,-2.3 -4.8,-4.1 -1.2,-1.8 -1.8,-3.8 -1.8,-6.2 0,-4 1.4,-7 4.1,-9 2.7,-1.9 6.8,-3.2 12.3,-3.9 3.8,-0.5 6.4,-1.1 7.8,-1.7 1.3,-0.6 2,-1.6 2,-2.8 0,-1.5 -0.6,-2.7 -1.7,-3.5 -1.1,-0.9 -2.9,-1.3 -5.1,-1.3 -1.9,0 -3.6,0.5 -5,1.5 -1.4,1 -2.5,2.5 -3.1,4.4 l -9.7,-1.5 c 0.8,-3.7 2.9,-6.6 6.1,-8.7 3.2,-2.1 7.2,-3.1 11.9,-3.1 5.7,0 10,1.1 12.8,3.4 2.8,2.3 4.2,5.4 4.2,9.3 v 19.8 c 0,2.3 0.1,4 0.2,5.1 0.1,1.1 0.4,2.1 0.9,2.8 h -10.3 c -0.4,-0.4 -0.7,-1.1 -0.9,-2 z m -3.4,-16.2 c -1.4,0.3 -3.2,0.6 -5.5,0.9 -2.1,0.3 -3.8,1 -5.1,2 -1.3,1 -1.9,2.3 -1.9,4.1 0,1.6 0.5,2.8 1.5,3.7 1,0.9 2.4,1.3 4.2,1.3 1.5,0 3.1,-0.3 4.6,-1 1.5,-0.6 2.7,-1.7 3.7,-3 1,-1.4 1.5,-3.1 1.5,-5.1 V 344 c -0.5,0.5 -1.5,1 -3,1.3 z"
   id="path635" />
	<path
   class="st1"
   d="m 921.6,358.3 c -2.9,4.1 -7,6.1 -12.5,6.1 -4,0 -7.4,-1.2 -10,-3.6 -2.6,-2.4 -3.9,-6 -3.9,-10.8 v -26 h 10.4 v 23.3 c 0,3.1 0.6,5.3 1.8,6.6 1.2,1.3 3.1,2 5.6,2 2.3,0 4.3,-0.9 5.9,-2.7 1.6,-1.8 2.4,-4.4 2.4,-7.7 V 324 h 10.4 v 39.5 h -10 v -5.2 z"
   id="path637" />
</g></g>
</svg>
